<svg width="37" height="42" viewBox="0 0 37 42" fill="none" xmlns="http://www.w3.org/2000/svg">
<path d="M25.6837 6.07501C24.7834 5.7044 24.3545 4.67531 24.7258 3.77719C25.0972 2.87836 26.1277 2.45089 27.028 2.8215C27.9282 3.19212 28.3564 4.22121 27.9851 5.11933C27.6138 6.01744 26.5832 6.44563 25.6837 6.07501ZM36.5381 12.0056L29.3819 1.25988C28.745 0.302752 27.59 -0.172933 26.4623 0.0573532L13.7966 2.63943C13.1856 2.87332 12.6984 3.34756 12.4487 3.95134L0.232035 33.5042C-0.268837 34.7168 0.309756 36.1057 1.52451 36.6059L13.0129 41.3375L16.5874 41.0965L27.7462 35.2227L36.5668 13.8846C36.8166 13.2808 36.8065 12.6015 36.5381 12.0056Z" fill="#FF8A65"/>
<path d="M16.5359 41.1181L27.6947 35.2443L36.5154 13.9062C36.5528 13.8162 36.5816 13.7241 36.6075 13.6313C36.4787 13.8803 36.3499 14.13 36.2167 14.3747C33.2957 19.7461 27.9869 23.5638 22.2096 25.5882C16.4323 27.6118 10.1944 27.9831 4.07817 27.6996C3.59673 27.6766 3.10665 27.6535 2.61441 27.6384L0.180578 33.5251C-0.321013 34.7384 0.2583 36.1266 1.47306 36.6275L12.9614 41.3592L16.5359 41.1181Z" fill="#E7673E"/>
<path d="M1.47314 36.6275C4.3877 37.8278 27.6948 35.2443 27.6948 35.2443L16.536 41.1181L12.9615 41.3591L1.47314 36.6275Z" fill="#B14F30"/>
<path d="M12.9614 41.3591C12.9614 41.3591 20.2932 40.2271 17.2649 30.9487L27.6947 35.2443C27.6947 35.2443 20.8595 42.3558 12.9614 41.3591Z" fill="#FF8A65"/>
<path d="M17.2532 12.2524C18.5248 12.7799 17.8663 14.7489 17.5245 15.5707C17.174 16.4127 16.2212 18.3133 14.9481 17.7858C14.661 17.6663 14.4617 17.4598 14.3393 17.1539C14.0846 16.5171 14.2134 15.5081 14.6862 14.4452C15.2612 13.062 16.2788 11.848 17.2532 12.2524ZM19.9274 16.466C21.1191 13.6039 20.4369 11.2356 18.1477 10.2864C15.8851 9.34724 13.4772 10.6807 12.2905 13.5313C10.9685 16.7747 12.2344 18.9977 14.0745 19.7605C15.9765 20.5499 18.5241 19.8368 19.9274 16.466Z" fill="white"/>
<path d="M26.2345 14.1336L10.9946 25.9401L13.1831 26.8475L28.423 15.0411L26.2345 14.1336Z" fill="white"/>
<path d="M22.2448 28.6603C21.9656 28.5445 21.7698 28.3408 21.6468 28.0371C21.3855 27.3937 21.5014 26.3769 21.9605 25.3104C22.5362 23.9279 23.5596 22.7161 24.5491 23.1263C25.8214 23.6538 25.1629 25.6234 24.8197 26.4453C24.4699 27.2872 23.5171 29.1878 22.2448 28.6603ZM25.4443 21.1609C23.1818 20.2218 20.7695 21.5639 19.5778 24.4274C18.2623 27.6557 19.531 29.8715 21.3711 30.635C23.2624 31.4194 25.7984 30.7019 27.2024 27.3319C28.3941 24.4691 27.7206 22.1044 25.4443 21.1609Z" fill="white"/>
<path d="M21.371 30.635C23.2622 31.4194 25.7982 30.702 27.2022 27.3319C27.8722 25.7206 27.9521 24.2669 27.4879 23.1356C26.774 23.5595 26.0393 23.951 25.2909 24.3101C25.3355 25.0657 25.0232 25.9573 24.8195 26.4453C24.4697 27.2872 23.5169 29.1878 22.2446 28.6603C21.9654 28.5445 21.7696 28.3408 21.6466 28.0371C21.4192 27.4779 21.4782 26.6352 21.7991 25.7235C20.8953 26.0271 19.9806 26.2934 19.0573 26.5215C18.8925 28.6121 19.9619 30.0507 21.371 30.635Z" fill="#E9E9E9"/>
</svg>
