<svg width="70" height="59" viewBox="0 0 70 59" fill="none" xmlns="http://www.w3.org/2000/svg">
<path d="M1.296 16.4V11.756H9.972V38H4.788V16.4H1.296ZM14.591 24.536C14.591 20.384 15.335 17.132 16.823 14.78C18.335 12.428 20.831 11.252 24.311 11.252C27.791 11.252 30.275 12.428 31.763 14.78C33.275 17.132 34.031 20.384 34.031 24.536C34.031 28.712 33.275 31.988 31.763 34.364C30.275 36.74 27.791 37.928 24.311 37.928C20.831 37.928 18.335 36.74 16.823 34.364C15.335 31.988 14.591 28.712 14.591 24.536ZM29.063 24.536C29.063 22.76 28.943 21.272 28.703 20.072C28.487 18.848 28.031 17.852 27.335 17.084C26.663 16.316 25.655 15.932 24.311 15.932C22.967 15.932 21.947 16.316 21.251 17.084C20.579 17.852 20.123 18.848 19.883 20.072C19.667 21.272 19.559 22.76 19.559 24.536C19.559 26.36 19.667 27.896 19.883 29.144C20.099 30.368 20.555 31.364 21.251 32.132C21.947 32.876 22.967 33.248 24.311 33.248C25.655 33.248 26.675 32.876 27.371 32.132C28.067 31.364 28.523 30.368 28.739 29.144C28.955 27.896 29.063 26.36 29.063 24.536Z" fill="white"/>
<path d="M55.6837 23.075C54.7834 22.7044 54.3545 21.6753 54.7258 20.7772C55.0972 19.8784 56.1277 19.4509 57.028 19.8215C57.9282 20.1921 58.3564 21.2212 57.9851 22.1193C57.6138 23.0174 56.5832 23.4456 55.6837 23.075ZM66.5381 29.0056L59.3819 18.2599C58.745 17.3028 57.59 16.8271 56.4623 17.0574L43.7966 19.6394C43.1856 19.8733 42.6984 20.3476 42.4487 20.9513L30.232 50.5042C29.7312 51.7168 30.3098 53.1057 31.5245 53.6059L43.0129 58.3375L46.5874 58.0965L57.7462 52.2227L66.5668 30.8846C66.8166 30.2808 66.8065 29.6015 66.5381 29.0056Z" fill="#FF8A65"/>
<path d="M46.5359 58.1181L57.6947 52.2443L66.5154 30.9062C66.5528 30.8162 66.5816 30.7241 66.6075 30.6313C66.4787 30.8803 66.3499 31.13 66.2167 31.3747C63.2957 36.7461 57.9869 40.5638 52.2096 42.5882C46.4323 44.6118 40.1944 44.9831 34.0782 44.6996C33.5967 44.6766 33.1066 44.6535 32.6144 44.6384L30.1806 50.5251C29.679 51.7384 30.2583 53.1266 31.4731 53.6275L42.9614 58.3592L46.5359 58.1181Z" fill="#E7673E"/>
<path d="M31.4731 53.6275C34.3877 54.8278 57.6948 52.2443 57.6948 52.2443L46.536 58.1181L42.9615 58.3591L31.4731 53.6275Z" fill="#B14F30"/>
<path d="M42.9614 58.3591C42.9614 58.3591 50.2932 57.2271 47.2649 47.9487L57.6947 52.2443C57.6947 52.2443 50.8595 59.3558 42.9614 58.3591Z" fill="#FF8A65"/>
<path d="M47.2532 29.2524C48.5248 29.7799 47.8663 31.7489 47.5245 32.5707C47.174 33.4127 46.2212 35.3133 44.9481 34.7858C44.661 34.6663 44.4617 34.4598 44.3393 34.1539C44.0846 33.5171 44.2134 32.5081 44.6862 31.4452C45.2612 30.062 46.2788 28.848 47.2532 29.2524ZM49.9274 33.466C51.1191 30.6039 50.4369 28.2356 48.1477 27.2864C45.8851 26.3472 43.4772 27.6807 42.2905 30.5313C40.9685 33.7747 42.2344 35.9977 44.0745 36.7605C45.9765 37.5499 48.5241 36.8368 49.9274 33.466Z" fill="white"/>
<path d="M56.2345 31.1336L40.9946 42.9401L43.1831 43.8475L58.423 32.0411L56.2345 31.1336Z" fill="white"/>
<path d="M52.2448 45.6603C51.9656 45.5445 51.7698 45.3408 51.6468 45.0371C51.3855 44.3937 51.5014 43.3769 51.9605 42.3104C52.5362 40.9279 53.5596 39.7161 54.5491 40.1263C55.8214 40.6538 55.1629 42.6234 54.8197 43.4453C54.4699 44.2872 53.5171 46.1878 52.2448 45.6603ZM55.4443 38.1609C53.1818 37.2218 50.7695 38.5639 49.5778 41.4274C48.2623 44.6557 49.531 46.8715 51.3711 47.635C53.2624 48.4194 55.7984 47.7019 57.2024 44.3319C58.3941 41.4691 57.7206 39.1044 55.4443 38.1609Z" fill="white"/>
<path d="M51.371 47.635C53.2622 48.4194 55.7982 47.702 57.2022 44.3319C57.8722 42.7206 57.9521 41.2669 57.4879 40.1356C56.774 40.5595 56.0393 40.951 55.2909 41.3101C55.3355 42.0657 55.0232 42.9573 54.8195 43.4453C54.4697 44.2872 53.5169 46.1878 52.2446 45.6603C51.9654 45.5445 51.7696 45.3408 51.6466 45.0371C51.4192 44.4779 51.4782 43.6352 51.7991 42.7235C50.8953 43.0271 49.9806 43.2934 49.0573 43.5215C48.8925 45.6121 49.9619 47.0507 51.371 47.635Z" fill="#E9E9E9"/>
</svg>
