<svg width="12" height="15" viewBox="0 0 12 15" fill="none" xmlns="http://www.w3.org/2000/svg">
<path fill-rule="evenodd" clip-rule="evenodd" d="M1.5 10C1.36739 10 1.24021 9.94732 1.14645 9.85355C1.05268 9.75979 1 9.63261 1 9.5V1.5C1 1.36739 1.05268 1.24021 1.14645 1.14645C1.24021 1.05268 1.36739 1 1.5 1H10.5C10.6326 1 10.7598 1.05268 10.8536 1.14645C10.9473 1.24021 11 1.36739 11 1.5V9.5C11 9.63261 10.9473 9.75979 10.8536 9.85355C10.7598 9.94732 10.6326 10 10.5 10H8.5C8.36739 10 8.24021 10.0527 8.14645 10.1464C8.05268 10.2402 8 10.3674 8 10.5C8 10.6326 8.05268 10.7598 8.14645 10.8536C8.24021 10.9473 8.36739 11 8.5 11H10.5C10.8978 11 11.2794 10.842 11.5607 10.5607C11.842 10.2794 12 9.89782 12 9.5V1.5C12 1.10218 11.842 0.720644 11.5607 0.43934C11.2794 0.158035 10.8978 0 10.5 0L1.5 0C1.10218 0 0.720644 0.158035 0.43934 0.43934C0.158035 0.720644 0 1.10218 0 1.5V9.5C0 9.89782 0.158035 10.2794 0.43934 10.5607C0.720644 10.842 1.10218 11 1.5 11H3.5C3.63261 11 3.75979 10.9473 3.85355 10.8536C3.94732 10.7598 4 10.6326 4 10.5C4 10.3674 3.94732 10.2402 3.85355 10.1464C3.75979 10.0527 3.63261 10 3.5 10H1.5Z" fill="#7986CB"/>
<path fill-rule="evenodd" clip-rule="evenodd" d="M5.6459 4.14592C5.69234 4.09935 5.74752 4.06241 5.80827 4.0372C5.86901 4.012 5.93413 3.99902 5.9999 3.99902C6.06567 3.99902 6.13079 4.012 6.19153 4.0372C6.25228 4.06241 6.30745 4.09935 6.3539 4.14592L9.3539 7.14592C9.44779 7.2398 9.50053 7.36714 9.50053 7.49992C9.50053 7.63269 9.44779 7.76003 9.3539 7.85392C9.26001 7.9478 9.13268 8.00055 8.9999 8.00055C8.86712 8.00055 8.73979 7.9478 8.6459 7.85392L6.4999 5.70692V14.4999C6.4999 14.6325 6.44722 14.7597 6.35345 14.8535C6.25969 14.9472 6.13251 14.9999 5.9999 14.9999C5.86729 14.9999 5.74011 14.9472 5.64635 14.8535C5.55258 14.7597 5.4999 14.6325 5.4999 14.4999V5.70692L3.3539 7.85392C3.26001 7.9478 3.13268 8.00055 2.9999 8.00055C2.86712 8.00055 2.73979 7.9478 2.6459 7.85392C2.55201 7.76003 2.49927 7.63269 2.49927 7.49992C2.49927 7.36714 2.55201 7.2398 2.6459 7.14592L5.6459 4.14592Z" fill="#7986CB"/>
</svg>
