<svg width="12" height="15" viewBox="0 0 12 15" fill="none" xmlns="http://www.w3.org/2000/svg">
<path fill-rule="evenodd" clip-rule="evenodd" d="M1.5 5C1.36739 5 1.24021 5.05268 1.14645 5.14645C1.05268 5.24021 1 5.36739 1 5.5V13.5C1 13.6326 1.05268 13.7598 1.14645 13.8536C1.24021 13.9473 1.36739 14 1.5 14H10.5C10.6326 14 10.7598 13.9473 10.8536 13.8536C10.9473 13.7598 11 13.6326 11 13.5V5.5C11 5.36739 10.9473 5.24021 10.8536 5.14645C10.7598 5.05268 10.6326 5 10.5 5H8.5C8.36739 5 8.24021 4.94732 8.14645 4.85355C8.05268 4.75979 8 4.63261 8 4.5C8 4.36739 8.05268 4.24021 8.14645 4.14645C8.24021 4.05268 8.36739 4 8.5 4H10.5C10.8978 4 11.2794 4.15804 11.5607 4.43934C11.842 4.72064 12 5.10218 12 5.5V13.5C12 13.8978 11.842 14.2794 11.5607 14.5607C11.2794 14.842 10.8978 15 10.5 15H1.5C1.10218 15 0.720644 14.842 0.43934 14.5607C0.158035 14.2794 0 13.8978 0 13.5V5.5C0 5.10218 0.158035 4.72064 0.43934 4.43934C0.720644 4.15804 1.10218 4 1.5 4H3.5C3.63261 4 3.75979 4.05268 3.85355 4.14645C3.94732 4.24021 4 4.36739 4 4.5C4 4.63261 3.94732 4.75979 3.85355 4.85355C3.75979 4.94732 3.63261 5 3.5 5H1.5Z" fill="#7986CB"/>
<path fill-rule="evenodd" clip-rule="evenodd" d="M5.6459 10.854C5.69234 10.9006 5.74752 10.9375 5.80827 10.9627C5.86901 10.9879 5.93413 11.0009 5.9999 11.0009C6.06567 11.0009 6.13079 10.9879 6.19153 10.9627C6.25228 10.9375 6.30745 10.9006 6.3539 10.854L9.3539 7.854C9.44779 7.76011 9.50053 7.63278 9.50053 7.5C9.50053 7.36722 9.44779 7.23989 9.3539 7.146C9.26001 7.05211 9.13268 6.99937 8.9999 6.99937C8.86712 6.99937 8.73979 7.05211 8.6459 7.146L6.4999 9.293V0.5C6.4999 0.367392 6.44722 0.240215 6.35345 0.146447C6.25969 0.0526784 6.13251 0 5.9999 0C5.86729 0 5.74011 0.0526784 5.64635 0.146447C5.55258 0.240215 5.4999 0.367392 5.4999 0.5V9.293L3.3539 7.146C3.26001 7.05211 3.13268 6.99937 2.9999 6.99937C2.86712 6.99937 2.73979 7.05211 2.6459 7.146C2.55201 7.23989 2.49927 7.36722 2.49927 7.5C2.49927 7.63278 2.55201 7.76011 2.6459 7.854L5.6459 10.854Z" fill="#7986CB"/>
</svg>
