<svg width="22" height="15" viewBox="0 0 22 15" fill="none" xmlns="http://www.w3.org/2000/svg">
<path d="M6 9C7.66 9 9 7.66 9 6C9 4.34 7.66 3 6 3C4.34 3 3 4.34 3 6C3 7.66 4.34 9 6 9ZM6 5C6.55 5 7 5.45 7 6C7 6.55 6.55 7 6 7C5.45 7 5 6.55 5 6C5 5.45 5.45 5 6 5ZM18 2H14C11.7909 2 10 3.79086 10 6C10 8.20914 8.20914 10 6 10C3.79086 10 2 8.20914 2 6V1C2 0.447715 1.55228 0 1 0C0.447715 0 0 0.447715 0 1V14C0 14.5523 0.447715 15 1 15C1.55228 15 2 14.5523 2 14V13.5C2 12.6716 2.67157 12 3.5 12H18.5C19.3284 12 20 12.6716 20 13.5V14C20 14.5523 20.4477 15 21 15C21.5523 15 22 14.5523 22 14V6C22 3.79 20.21 2 18 2ZM20 6C20 8.20914 18.2091 10 16 10H15C13.3431 10 12 8.65685 12 7C12 5.34315 13.3431 4 15 4H18C19.1 4 20 4.9 20 6Z" fill="#7986CB"/>
</svg>
