<svg width="32" height="33" viewBox="0 0 32 33" fill="none" xmlns="http://www.w3.org/2000/svg">
<path d="M16 0.499512C12.8355 0.499512 9.74207 1.4379 7.11088 3.196C4.4797 4.9541 2.42894 7.45296 1.21793 10.3766C0.0069325 13.3002 -0.309921 16.5173 0.307443 19.621C0.924806 22.7247 2.44866 25.5756 4.6863 27.8132C6.92394 30.0509 9.77487 31.5747 12.8786 32.1921C15.9823 32.8094 19.1993 32.4926 22.1229 31.2816C25.0466 30.0706 27.5454 28.0198 29.3035 25.3886C31.0616 22.7575 32 19.664 32 16.4995C32 12.256 30.3143 8.18639 27.3137 5.1858C24.3131 2.18522 20.2435 0.499512 16 0.499512ZM16.06 18.1795C15.8911 18.1808 15.7236 18.1487 15.5671 18.085C15.4106 18.0212 15.2684 17.9272 15.1484 17.8082C15.0285 17.6892 14.9333 17.5476 14.8684 17.3917C14.8034 17.2357 14.77 17.0684 14.77 16.8995V7.14951C14.77 6.80738 14.9059 6.47927 15.1478 6.23734C15.3898 5.99542 15.7179 5.85951 16.06 5.85951C16.4021 5.85951 16.7303 5.99542 16.9722 6.23734C17.2141 6.47927 17.35 6.80738 17.35 7.14951V16.8995C17.35 17.0684 17.3166 17.2357 17.2516 17.3917C17.1867 17.5476 17.0915 17.6892 16.9716 17.8082C16.8517 17.9272 16.7094 18.0212 16.5529 18.085C16.3965 18.1487 16.2289 18.1808 16.06 18.1795ZM16 26.2895C13.8938 26.3144 11.8348 25.6656 10.1234 24.4376C8.41198 23.2097 7.13782 21.467 6.48683 19.4637C5.83583 17.4605 5.84209 15.3017 6.50468 13.3023C7.16728 11.3028 8.45153 9.56751 10.17 8.34951C10.4693 8.13616 10.8405 8.04909 11.2035 8.10709C11.5665 8.16509 11.8921 8.36351 12.11 8.65951C12.2164 8.80569 12.2928 8.97148 12.3348 9.14732C12.3768 9.32316 12.3836 9.50558 12.3548 9.68406C12.326 9.86254 12.2621 10.0336 12.1669 10.1872C12.0717 10.3409 11.947 10.4742 11.8 10.5795C10.8115 11.3054 10.0255 12.2725 9.51681 13.3884C9.00812 14.5043 8.79374 15.7319 8.8941 16.9542C8.99447 18.1764 9.40625 19.3526 10.0902 20.3706C10.7741 21.3886 11.7073 22.2144 12.801 22.7694C13.8946 23.3243 15.1122 23.5899 16.3376 23.5408C17.563 23.4917 18.7554 23.1295 19.8011 22.4888C20.8468 21.8481 21.711 20.9502 22.3112 19.8807C22.9115 18.8113 23.2278 17.6059 23.23 16.3795C23.2266 15.2495 22.9525 14.1368 22.4305 13.1347C21.9085 12.1325 21.154 11.27 20.23 10.6195C19.9455 10.395 19.7616 10.0669 19.7184 9.70702C19.6753 9.34716 19.7766 8.98488 20 8.69951C20.2209 8.40665 20.5479 8.21219 20.9107 8.15796C21.2735 8.10372 21.6431 8.19405 21.94 8.40951C23.6405 9.64146 24.9043 11.3832 25.548 13.382C26.1917 15.3808 26.1818 17.5327 25.5198 19.5254C24.8578 21.5182 23.578 23.2483 21.8662 24.4645C20.1544 25.6808 18.0997 26.32 16 26.2895Z" fill="#C8C8C8"/>
</svg>
