<svg width="10" height="10" viewBox="0 0 10 10" fill="none" xmlns="http://www.w3.org/2000/svg">
<path d="M9.50024 4.5H7.91524L9.18524 3.23C9.2316 3.18374 9.26837 3.1288 9.29346 3.06831C9.31855 3.00783 9.33147 2.94298 9.33147 2.8775C9.33147 2.81202 9.31855 2.74717 9.29346 2.68669C9.26837 2.6262 9.2316 2.57126 9.18524 2.525C8.99024 2.33 8.67024 2.33 8.47524 2.525L6.50024 4.5H5.50024V3.5L7.47524 1.525C7.67024 1.33 7.67024 1.01 7.47524 0.815C7.42899 0.768648 7.37404 0.731875 7.31356 0.706784C7.25307 0.681693 7.18823 0.668778 7.12274 0.668778C7.05726 0.668778 6.99242 0.681693 6.93193 0.706784C6.87145 0.731875 6.8165 0.768648 6.77024 0.815L5.50024 2.085V0.5C5.50024 0.225 5.27524 0 5.00024 0C4.72524 0 4.50024 0.225 4.50024 0.5V2.085L3.23024 0.815C3.18399 0.768648 3.12904 0.731875 3.06856 0.706784C3.00807 0.681693 2.94323 0.668778 2.87774 0.668778C2.81226 0.668778 2.74742 0.681693 2.68693 0.706784C2.62645 0.731875 2.5715 0.768648 2.52524 0.815C2.33024 1.01 2.33024 1.33 2.52524 1.525L4.50024 3.5V4.5H3.50024L1.52524 2.525C1.33024 2.33 1.01024 2.33 0.815244 2.525C0.768892 2.57126 0.732119 2.6262 0.707028 2.68669C0.681937 2.74717 0.669022 2.81202 0.669022 2.8775C0.669022 2.94298 0.681937 3.00783 0.707028 3.06831C0.732119 3.1288 0.768892 3.18374 0.815244 3.23L2.08524 4.5H0.500244C0.225244 4.5 0.000244141 4.725 0.000244141 5C0.000244141 5.275 0.225244 5.5 0.500244 5.5H2.08524L0.815244 6.77C0.768892 6.81626 0.732119 6.8712 0.707028 6.93169C0.681937 6.99217 0.669022 7.05702 0.669022 7.1225C0.669022 7.18798 0.681937 7.25283 0.707028 7.31331C0.732119 7.3738 0.768892 7.42874 0.815244 7.475C1.01024 7.67 1.33024 7.67 1.52524 7.475L3.50024 5.5H4.50024V6.5L2.52524 8.475C2.33024 8.67 2.33024 8.99 2.52524 9.185C2.72024 9.38 3.03524 9.38 3.23024 9.185L4.50024 7.915V9.5C4.50024 9.775 4.72524 10 5.00024 10C5.27524 10 5.50024 9.775 5.50024 9.5V7.915L6.77024 9.185C6.96524 9.38 7.28024 9.38 7.47524 9.185C7.67024 8.99 7.67024 8.67 7.47524 8.475L5.50024 6.5V5.5H6.50024L8.47524 7.475C8.67024 7.67 8.99024 7.67 9.18524 7.475C9.2316 7.42874 9.26837 7.3738 9.29346 7.31331C9.31855 7.25283 9.33147 7.18798 9.33147 7.1225C9.33147 7.05702 9.31855 6.99217 9.29346 6.93169C9.26837 6.8712 9.2316 6.81626 9.18524 6.77L7.91524 5.5H9.50024C9.77524 5.5 10.0002 5.275 10.0002 5C10.0002 4.725 9.77524 4.5 9.50024 4.5Z" fill="#FF8A65"/>
</svg>
