<svg width="18" height="17" viewBox="0 0 18 17" fill="none" xmlns="http://www.w3.org/2000/svg">
<path d="M10.2229 0.75C10.2229 0.551088 10.1439 0.360322 10.0032 0.21967C9.86258 0.0790175 9.67181 0 9.4729 0C9.27399 0 9.08322 0.0790175 8.94257 0.21967C8.80192 0.360322 8.7229 0.551088 8.7229 0.75V1.75C8.7229 1.94891 8.80192 2.13968 8.94257 2.28033C9.08322 2.42098 9.27399 2.5 9.4729 2.5C9.67181 2.5 9.86258 2.42098 10.0032 2.28033C10.1439 2.13968 10.2229 1.94891 10.2229 1.75V0.75ZM14.4729 8.5C14.4729 9.82608 13.9461 11.0979 13.0084 12.0355C12.0708 12.9732 10.799 13.5 9.4729 13.5C8.14682 13.5 6.87505 12.9732 5.93737 12.0355C4.99968 11.0979 4.4729 9.82608 4.4729 8.5C4.4729 7.17392 4.99968 5.90215 5.93737 4.96447C6.87505 4.02678 8.14682 3.5 9.4729 3.5C10.799 3.5 12.0708 4.02678 13.0084 4.96447C13.9461 5.90215 14.4729 7.17392 14.4729 8.5ZM12.9729 8.5C12.9729 7.57174 12.6042 6.6815 11.9478 6.02513C11.2914 5.36875 10.4012 5 9.4729 5V12C10.4012 12 11.2914 11.6313 11.9478 10.9749C12.6042 10.3185 12.9729 9.42826 12.9729 8.5ZM17.9729 8.5C17.9729 8.69891 17.8939 8.88968 17.7532 9.03033C17.6126 9.17098 17.4218 9.25 17.2229 9.25H16.2229C16.024 9.25 15.8332 9.17098 15.6926 9.03033C15.5519 8.88968 15.4729 8.69891 15.4729 8.5C15.4729 8.30109 15.5519 8.11032 15.6926 7.96967C15.8332 7.82902 16.024 7.75 16.2229 7.75H17.2229C17.4218 7.75 17.6126 7.82902 17.7532 7.96967C17.8939 8.11032 17.9729 8.30109 17.9729 8.5ZM10.2229 15.25C10.2229 15.0511 10.1439 14.8603 10.0032 14.7197C9.86258 14.579 9.67181 14.5 9.4729 14.5C9.27399 14.5 9.08322 14.579 8.94257 14.7197C8.80192 14.8603 8.7229 15.0511 8.7229 15.25V16.25C8.7229 16.4489 8.80192 16.6397 8.94257 16.7803C9.08322 16.921 9.27399 17 9.4729 17C9.67181 17 9.86258 16.921 10.0032 16.7803C10.1439 16.6397 10.2229 16.4489 10.2229 16.25V15.25ZM3.4729 8.5C3.4729 8.69891 3.39388 8.88968 3.25323 9.03033C3.11258 9.17098 2.92181 9.25 2.7229 9.25H1.7229C1.52399 9.25 1.33322 9.17098 1.19257 9.03033C1.05192 8.88968 0.9729 8.69891 0.9729 8.5C0.9729 8.30109 1.05192 8.11032 1.19257 7.96967C1.33322 7.82902 1.52399 7.75 1.7229 7.75H2.7229C2.92181 7.75 3.11258 7.82902 3.25323 7.96967C3.39388 8.11032 3.4729 8.30109 3.4729 8.5ZM4.7529 2.72C4.61073 2.58752 4.42268 2.5154 4.22838 2.51883C4.03408 2.52225 3.84869 2.60097 3.71128 2.73838C3.57387 2.87579 3.49515 3.06118 3.49173 3.25548C3.4883 3.44978 3.56042 3.63783 3.6929 3.78L4.1929 4.28C4.33508 4.41248 4.52312 4.4846 4.71742 4.48117C4.91172 4.47775 5.09711 4.39903 5.23452 4.26162C5.37194 4.12421 5.45065 3.93882 5.45408 3.74452C5.4575 3.55022 5.38538 3.36217 5.2529 3.22L4.7529 2.72ZM3.6929 14.28C3.83353 14.4205 4.02415 14.4993 4.2229 14.4993C4.42165 14.4993 4.61228 14.4205 4.7529 14.28L5.2529 13.78C5.32659 13.7113 5.38569 13.6285 5.42668 13.5365C5.46767 13.4445 5.48972 13.3452 5.49149 13.2445C5.49327 13.1438 5.47474 13.0438 5.43702 12.9504C5.3993 12.857 5.34316 12.7722 5.27194 12.701C5.20072 12.6297 5.11589 12.5736 5.0225 12.5359C4.92911 12.4982 4.82908 12.4796 4.72838 12.4814C4.62767 12.4832 4.52836 12.5052 4.43636 12.5462C4.34436 12.5872 4.26156 12.6463 4.1929 12.72L3.6929 13.22C3.55245 13.3606 3.47356 13.5512 3.47356 13.75C3.47356 13.9488 3.55245 14.1394 3.6929 14.28ZM14.1929 2.72C14.2616 2.64631 14.3444 2.58721 14.4364 2.54622C14.5284 2.50523 14.6277 2.48319 14.7284 2.48141C14.8291 2.47963 14.9291 2.49816 15.0225 2.53588C15.1159 2.5736 15.2007 2.62974 15.2719 2.70096C15.3432 2.77218 15.3993 2.85701 15.437 2.9504C15.4747 3.04379 15.4933 3.14382 15.4915 3.24452C15.4897 3.34523 15.4677 3.44454 15.4267 3.53654C15.3857 3.62854 15.3266 3.71134 15.2529 3.78L14.7529 4.28C14.6842 4.35369 14.6014 4.41279 14.5094 4.45378C14.4174 4.49477 14.3181 4.51682 14.2174 4.51859C14.1167 4.52037 14.0167 4.50184 13.9233 4.46412C13.8299 4.4264 13.7451 4.37026 13.6739 4.29904C13.6026 4.22782 13.5465 4.14299 13.5088 4.0496C13.4711 3.95621 13.4525 3.85618 13.4543 3.75548C13.4561 3.65477 13.4781 3.55546 13.5191 3.46346C13.5601 3.37146 13.6192 3.28866 13.6929 3.22L14.1929 2.72ZM15.2529 14.28C15.1123 14.4205 14.9217 14.4993 14.7229 14.4993C14.5241 14.4993 14.3335 14.4205 14.1929 14.28L13.6929 13.78C13.6192 13.7113 13.5601 13.6285 13.5191 13.5365C13.4781 13.4445 13.4561 13.3452 13.4543 13.2445C13.4525 13.1438 13.4711 13.0438 13.5088 12.9504C13.5465 12.857 13.6026 12.7722 13.6739 12.701C13.7451 12.6297 13.8299 12.5736 13.9233 12.5359C14.0167 12.4982 14.1167 12.4796 14.2174 12.4814C14.3181 12.4832 14.4174 12.5052 14.5094 12.5462C14.6014 12.5872 14.6842 12.6463 14.7529 12.72L15.2529 13.22C15.3934 13.3606 15.4722 13.5512 15.4722 13.75C15.4722 13.9488 15.3934 14.1394 15.2529 14.28Z" fill="#5C5CA7"/>
</svg>
