<svg width="19" height="18" viewBox="0 0 19 18" fill="none" xmlns="http://www.w3.org/2000/svg">
<path d="M10.0002 0C9.45017 0 9.00017 0.45 9.00017 1V9C9.00017 9.55 9.45017 10 10.0002 10C10.5502 10 11.0002 9.55 11.0002 9V1C11.0002 0.45 10.5502 0 10.0002 0ZM15.1402 2.86C14.9562 3.04392 14.8521 3.29284 14.8502 3.55295C14.8483 3.81306 14.9489 4.06345 15.1302 4.25C16.2602 5.45 16.9602 7.05 17.0002 8.82C17.0902 12.65 13.9202 15.95 10.0902 15.99C9.16353 16.0045 8.24327 15.8343 7.38309 15.4894C6.5229 15.1445 5.73999 14.6317 5.08004 13.9811C4.42008 13.3304 3.89628 12.5549 3.53919 11.6997C3.1821 10.8445 2.99887 9.92676 3.00017 9C3.00017 7.16 3.71017 5.49 4.87017 4.24C5.24017 3.85 5.24017 3.24 4.86017 2.86C4.76621 2.76517 4.65408 2.69025 4.5305 2.63975C4.40691 2.58924 4.27442 2.56416 4.14092 2.56603C4.00743 2.5679 3.87569 2.59667 3.75357 2.65061C3.63144 2.70456 3.52146 2.78258 3.43017 2.88C1.92947 4.46958 1.06474 6.55489 1.00017 8.74C0.860175 13.62 4.83017 17.84 9.71017 17.99C14.8102 18.15 19.0002 14.06 19.0002 8.99C19.0002 6.62 18.0802 4.48 16.5802 2.88C16.2002 2.47 15.5402 2.46 15.1402 2.86V2.86Z" fill="#F6F6F6"/>
</svg>
