<svg width="24" height="23" viewBox="0 0 24 23" fill="none" xmlns="http://www.w3.org/2000/svg">
<path d="M24 11C24 16.799 18.627 21.5 12 21.5C10.8115 21.5016 9.62788 21.3473 8.4795 21.041C7.6035 21.485 5.592 22.337 2.208 22.892C1.908 22.94 1.68 22.628 1.7985 22.349C2.3295 21.095 2.8095 19.424 2.9535 17.9C1.116 16.055 0 13.64 0 11C0 5.201 5.373 0.5 12 0.5C18.627 0.5 24 5.201 24 11ZM7.5 11C7.5 10.6022 7.34196 10.2206 7.06066 9.93934C6.77936 9.65804 6.39782 9.5 6 9.5C5.60218 9.5 5.22064 9.65804 4.93934 9.93934C4.65804 10.2206 4.5 10.6022 4.5 11C4.5 11.3978 4.65804 11.7794 4.93934 12.0607C5.22064 12.342 5.60218 12.5 6 12.5C6.39782 12.5 6.77936 12.342 7.06066 12.0607C7.34196 11.7794 7.5 11.3978 7.5 11ZM13.5 11C13.5 10.6022 13.342 10.2206 13.0607 9.93934C12.7794 9.65804 12.3978 9.5 12 9.5C11.6022 9.5 11.2206 9.65804 10.9393 9.93934C10.658 10.2206 10.5 10.6022 10.5 11C10.5 11.3978 10.658 11.7794 10.9393 12.0607C11.2206 12.342 11.6022 12.5 12 12.5C12.3978 12.5 12.7794 12.342 13.0607 12.0607C13.342 11.7794 13.5 11.3978 13.5 11ZM18 12.5C18.3978 12.5 18.7794 12.342 19.0607 12.0607C19.342 11.7794 19.5 11.3978 19.5 11C19.5 10.6022 19.342 10.2206 19.0607 9.93934C18.7794 9.65804 18.3978 9.5 18 9.5C17.6022 9.5 17.2206 9.65804 16.9393 9.93934C16.658 10.2206 16.5 10.6022 16.5 11C16.5 11.3978 16.658 11.7794 16.9393 12.0607C17.2206 12.342 17.6022 12.5 18 12.5Z" fill="white"/>
</svg>
