<svg width="8" height="13" viewBox="0 0 8 13" fill="none" xmlns="http://www.w3.org/2000/svg">
<path d="M4.10938 7.9252V3.50439H2.48438V7.92439C1.91441 8.22014 1.51994 8.81002 1.51994 9.49658C1.52694 9.96336 1.71727 10.4087 2.04982 10.7363C2.38237 11.0639 2.83045 11.2476 3.29729 11.2477C3.76412 11.2477 4.21224 11.0641 4.54487 10.7366C4.87749 10.409 5.06792 9.96377 5.07503 9.49699C5.07503 8.81042 4.68097 8.22055 4.10978 7.92561L4.10938 7.9252ZM5.32813 2.13208C5.32813 1.01245 4.4165 0.10083 3.29688 0.10083C2.17725 0.10083 1.26563 1.01286 1.26563 2.13208V7.30242C0.961279 7.58104 0.718305 7.91999 0.552187 8.29769C0.386069 8.67539 0.300448 9.08356 0.300782 9.49617C0.300782 11.148 1.64547 12.4931 3.29728 12.4931C4.94909 12.4931 6.29338 11.1484 6.29338 9.49617C6.29338 8.64874 5.93669 7.85899 5.32853 7.30161V2.13289L5.32813 2.13208ZM5.48047 9.49739C5.47972 10.0762 5.24938 10.631 4.84 11.0402C4.43063 11.4493 3.87566 11.6793 3.29688 11.6798C2.7182 11.679 2.16344 11.4488 1.75425 11.0396C1.34506 10.6304 1.11485 10.0757 1.11409 9.49699C1.11409 8.76777 1.47809 8.09827 2.07934 7.69405V2.13289C2.07934 1.46136 2.62494 0.914142 3.29688 0.914142C3.96881 0.914142 4.51563 1.46095 4.51563 2.13289V7.69445C4.81242 7.89225 5.05578 8.16027 5.22409 8.47472C5.39241 8.78918 5.48047 9.14032 5.48047 9.49699V9.49739ZM5.97203 3.50439L7.80016 4.55983V2.44977L5.97203 3.50439Z" fill="#FF8A65"/>
</svg>
