<svg width="360" height="178" viewBox="0 0 360 178" fill="none" xmlns="http://www.w3.org/2000/svg">
<path fill-rule="evenodd" clip-rule="evenodd" d="M351.36 34.3724L360 31.3396V87.9529V178H0V87.9529V87.9528V64.701L8.64 55.6024C9.05322 55.1673 9.48621 54.709 9.93802 54.2308C18.9329 44.7105 35.3864 27.2957 51.84 27.2957C60.1009 27.2957 68.6077 32.2172 77.236 37.209C85.6536 42.0788 94.1868 47.0156 102.72 47.5148C112.512 48.6606 122.304 44.2876 132.096 39.9147C139.584 36.5707 147.072 33.2267 154.56 32.3505C161.275 31.9577 167.845 33.3967 174.382 34.8287C184.669 37.0817 194.875 39.3173 205.44 34.3724C212.793 31.3611 220.146 24.6885 227.5 18.0159C237.426 9.00797 247.353 0 257.28 0C267.864 0 278.448 10.2403 288.812 20.2673C295.368 26.6107 301.836 32.8687 308.16 36.3943C325.44 46.5039 342.72 38.4162 351.36 34.3724Z" fill="url(#paint0_linear_156:4188)" fill-opacity="0.16"/>
<path fill-rule="evenodd" clip-rule="evenodd" d="M0 22.8593L15.36 37.4532C29.76 50.5878 60.48 78.3163 90.24 75.3975C120 72.4787 149.76 40.372 180.48 40.372C210.24 40.372 240 72.4787 269.76 72.4787C300.48 72.4787 330.24 40.372 344.64 22.8593L360 6.80591V171.718H344.64C330.24 171.718 300.48 171.718 269.76 171.718C240 171.718 210.24 171.718 180.48 171.718C149.76 171.718 120 171.718 90.24 171.718C60.48 171.718 29.76 171.718 15.36 171.718H0V22.8593Z" fill="white" fill-opacity="0.06"/>
<defs>
<linearGradient id="paint0_linear_156:4188" x1="179.52" y1="20.1248" x2="180.677" y2="87.9413" gradientUnits="userSpaceOnUse">
<stop stop-color="#013157" stop-opacity="0.53"/>
</linearGradient>
</defs>
</svg>
