<svg width="75" height="74" viewBox="0 0 75 74" fill="none" xmlns="http://www.w3.org/2000/svg">
<path d="M28.8506 56.9487C28.7925 57.056 28.6918 57.1134 28.6256 57.0781C28.5595 57.0413 28.5543 56.9252 28.6131 56.8179C28.6719 56.7105 28.7726 56.6532 28.8381 56.6892C28.9042 56.7252 28.9094 56.8421 28.8506 56.9487Z" fill="#BD1C2D"/>
<path d="M31.9998 64.1786C31.9998 64.9424 31.3823 65.5613 30.6215 65.5613C29.8607 65.5613 29.2432 64.9424 29.2432 64.1786C29.2432 63.4155 29.8607 62.7966 30.6215 62.7966C31.3823 62.7966 31.9998 63.4155 31.9998 64.1786Z" fill="#BE1C2E"/>
<path d="M31.9323 64.1911C31.9323 64.9005 31.3678 65.4753 30.6701 65.4753C29.9733 65.4753 29.4087 64.9005 29.4087 64.1911C29.4087 63.4817 29.9733 62.9061 30.6701 62.9061C31.3678 62.9061 31.9323 63.4817 31.9323 64.1911Z" fill="#B21B2B"/>
<path d="M31.9588 64.1786C31.9588 64.824 31.4163 65.3467 30.7459 65.3467C30.0755 65.3467 29.5322 64.824 29.5322 64.1786C29.5322 63.5332 30.0755 63.0105 30.7459 63.0105C31.4163 63.0105 31.9588 63.5332 31.9588 64.1786Z" fill="#A71B28"/>
<path d="M31.8945 64.1704C31.8945 64.7843 31.402 65.2819 30.7948 65.2819C30.1876 65.2819 29.6958 64.7843 29.6958 64.1704C29.6958 63.5566 30.1876 63.059 30.7948 63.059C31.402 63.059 31.8945 63.5566 31.8945 64.1704Z" fill="#8F1822"/>
<path d="M31.64 63.7316C31.7106 63.9969 31.6348 64.2476 31.4716 64.291C31.3092 64.3336 31.121 64.1535 31.0504 63.8874C30.9806 63.622 31.0563 63.3713 31.2188 63.3287C31.382 63.2853 31.5701 63.4654 31.64 63.7316Z" fill="#BD1C2D"/>
<path d="M31.6079 64.5955C31.5491 64.7021 31.4476 64.7602 31.3822 64.7234C31.3168 64.6874 31.3109 64.5713 31.3697 64.4639C31.4285 64.3566 31.5292 64.2993 31.5954 64.3353C31.6608 64.3713 31.6667 64.4874 31.6079 64.5955Z" fill="#BD1C2D"/>
<path d="M2.75593 64.1786C2.75593 64.9424 2.13917 65.5613 1.3776 65.5613C0.616758 65.5613 0 64.9424 0 64.1786C0 63.4155 0.616758 62.7966 1.3776 62.7966C2.13917 62.7966 2.75593 63.4155 2.75593 64.1786Z" fill="#BE1C2E"/>
<path d="M2.68917 64.1911C2.68917 64.9005 2.12387 65.4753 1.42698 65.4753C0.730098 65.4753 0.164062 64.9005 0.164062 64.1911C0.164062 63.4817 0.730098 62.9061 1.42698 62.9061C2.12387 62.9061 2.68917 63.4817 2.68917 64.1911Z" fill="#B21B2B"/>
<path d="M2.71542 64.1786C2.71542 64.824 2.17218 65.3467 1.50175 65.3467C0.831333 65.3467 0.288086 64.824 0.288086 64.1786C0.288086 63.5332 0.831333 63.0105 1.50175 63.0105C2.17218 63.0105 2.71542 63.5332 2.71542 64.1786Z" fill="#A71B28"/>
<path d="M2.65014 64.1704C2.65014 64.7843 2.15835 65.2819 1.55115 65.2819C0.943943 65.2819 0.450684 64.7843 0.450684 64.1704C0.450684 63.5566 0.943943 63.059 1.55115 63.059C2.15835 63.059 2.65014 63.5566 2.65014 64.1704Z" fill="#8F1822"/>
<path d="M2.39643 63.7316C2.46627 63.9969 2.39055 64.2476 2.22809 64.291C2.0649 64.3336 1.87671 64.1535 1.80688 63.8874C1.73704 63.622 1.81202 63.3713 1.97522 63.3287C2.13768 63.2853 2.3266 63.4654 2.39643 63.7316Z" fill="#BD1C2D"/>
<path d="M2.36324 64.5955C2.30443 64.7021 2.20372 64.7602 2.13756 64.7234C2.07214 64.6874 2.06626 64.5713 2.12507 64.4639C2.18461 64.3566 2.28532 64.2993 2.35075 64.3353C2.41617 64.3713 2.42205 64.4874 2.36324 64.5955Z" fill="#BD1C2D"/>
<path d="M12.3765 71.2284H20.2502V57.6854H12.3765V71.2284Z" fill="#351F16"/>
<path d="M12.8706 57.6855H19.7564V56.9276H12.8706V57.6855Z" fill="#B4A18E"/>
<path d="M12.8706 70.4705H19.7564V57.6854H12.8706V70.4705Z" fill="#432415"/>
<path d="M16.3823 40.2479L1.37793 64.2162L10.7499 59.6394L15.5759 65.0593L19.7219 59.6394L31.2492 64.2162L16.3823 40.2479Z" fill="#1F6636"/>
<path d="M16.3677 36.8979L4.49414 55.866L11.9107 52.2433L15.7296 56.5327L19.0111 52.2433L28.1331 55.866L16.3677 36.8979Z" fill="#2C973F"/>
<path d="M16.358 32.7696L6.59424 48.3665L12.6927 45.3885L15.8339 48.9156L18.5317 45.3885L26.0328 48.3665L16.358 32.7696Z" fill="#3FB93C"/>
<path d="M16.344 31.3324L9.61328 42.0849L13.8174 40.0317L15.983 42.4635L17.8421 40.0317L23.0136 42.0849L16.344 31.3324Z" fill="#7ECB29"/>
<path d="M14.2598 40.8425C14.2598 41.6055 13.6431 42.2245 12.8815 42.2245C12.1207 42.2245 11.5039 41.6055 11.5039 40.8425C11.5039 40.0787 12.1207 39.4597 12.8815 39.4597C13.6431 39.4597 14.2598 40.0787 14.2598 40.8425Z" fill="#BE1C2E"/>
<path d="M14.1931 40.8551C14.1931 41.5645 13.6278 42.1386 12.9309 42.1386C12.2333 42.1386 11.668 41.5645 11.668 40.8551C11.668 40.145 12.2333 39.5701 12.9309 39.5701C13.6278 39.5701 14.1931 40.145 14.1931 40.8551Z" fill="#B21B2B"/>
<path d="M14.2198 40.8426C14.2198 41.4873 13.6758 42.0107 13.0061 42.0107C12.3357 42.0107 11.7925 41.4873 11.7925 40.8426C11.7925 40.1972 12.3357 39.6745 13.0061 39.6745C13.6758 39.6745 14.2198 40.1972 14.2198 40.8426Z" fill="#A71B28"/>
<path d="M14.154 40.8344C14.154 41.4475 13.6623 41.9452 13.0543 41.9452C12.4471 41.9452 11.9546 41.4475 11.9546 40.8344C11.9546 40.2206 12.4471 39.723 13.0543 39.723C13.6623 39.723 14.154 40.2206 14.154 40.8344Z" fill="#8F1822"/>
<path d="M13.9008 40.3955C13.9707 40.6609 13.895 40.9116 13.7325 40.9542C13.5693 40.9969 13.3811 40.8168 13.3113 40.5514C13.2414 40.2853 13.3164 40.0353 13.4789 39.992C13.6421 39.9493 13.831 40.1294 13.9008 40.3955Z" fill="#BD1C2D"/>
<path d="M13.8667 41.2586C13.8086 41.3659 13.7071 41.424 13.6417 41.3872C13.5756 41.3512 13.5704 41.2351 13.6292 41.127C13.688 41.0204 13.7895 40.9631 13.8549 40.9991C13.9203 41.0351 13.9255 41.152 13.8667 41.2586Z" fill="#BD1C2D"/>
<path d="M23.9156 42.3591C23.9156 43.1228 23.2988 43.7418 22.5373 43.7418C21.7764 43.7418 21.1597 43.1228 21.1597 42.3591C21.1597 41.596 21.7764 40.9771 22.5373 40.9771C23.2988 40.9771 23.9156 41.596 23.9156 42.3591Z" fill="#BE1C2E"/>
<path d="M23.8488 42.3715C23.8488 43.0809 23.2835 43.6558 22.5859 43.6558C21.889 43.6558 21.3237 43.0809 21.3237 42.3715C21.3237 41.6621 21.889 41.0873 22.5859 41.0873C23.2835 41.0873 23.8488 41.6621 23.8488 42.3715Z" fill="#B21B2B"/>
<path d="M23.8756 42.3591C23.8756 43.0045 23.3316 43.5279 22.6619 43.5279C21.9915 43.5279 21.4482 43.0045 21.4482 42.3591C21.4482 41.7136 21.9915 41.191 22.6619 41.191C23.3316 41.191 23.8756 41.7136 23.8756 42.3591Z" fill="#A71B28"/>
<path d="M23.8098 42.351C23.8098 42.9648 23.318 43.4617 22.7101 43.4617C22.1029 43.4617 21.6104 42.9648 21.6104 42.351C21.6104 41.7372 22.1029 41.2402 22.7101 41.2402C23.318 41.2402 23.8098 41.7372 23.8098 42.351Z" fill="#8F1822"/>
<path d="M23.5564 41.9121C23.6255 42.1783 23.5505 42.4282 23.3881 42.4716C23.2249 42.5142 23.036 42.3341 22.9669 42.0687C22.8963 41.8026 22.972 41.5519 23.1345 41.5093C23.2977 41.4667 23.4866 41.6468 23.5564 41.9121Z" fill="#BD1C2D"/>
<path d="M23.5224 42.7758C23.4644 42.8831 23.3629 42.9405 23.2975 42.9037C23.2313 42.8677 23.2262 42.7516 23.285 42.6442C23.3438 42.5369 23.4452 42.4796 23.5107 42.5156C23.5761 42.5523 23.5812 42.6685 23.5224 42.7758Z" fill="#BD1C2D"/>
<path d="M8.24519 48.9155C8.24519 49.6785 7.62843 50.2982 6.86686 50.2982C6.10602 50.2982 5.48926 49.6785 5.48926 48.9155C5.48926 48.1524 6.10602 47.5334 6.86686 47.5334C7.62843 47.5334 8.24519 48.1524 8.24519 48.9155Z" fill="#BE1C2E"/>
<path d="M8.17818 48.9272C8.17818 49.6366 7.61288 50.2122 6.91599 50.2122C6.21837 50.2122 5.65381 49.6366 5.65381 48.9272C5.65381 48.2186 6.21837 47.643 6.91599 47.643C7.61288 47.643 8.17818 48.2186 8.17818 48.9272Z" fill="#B21B2B"/>
<path d="M8.20395 48.9155C8.20395 49.5609 7.66143 50.0836 6.99101 50.0836C6.32133 50.0836 5.77734 49.5609 5.77734 48.9155C5.77734 48.27 6.32133 47.7474 6.99101 47.7474C7.66143 47.7474 8.20395 48.27 8.20395 48.9155Z" fill="#A71B28"/>
<path d="M8.14037 48.9067C8.14037 49.5205 7.64711 50.0182 7.03991 50.0182C6.43271 50.0182 5.94092 49.5205 5.94092 48.9067C5.94092 48.2936 6.43271 47.796 7.03991 47.796C7.64711 47.796 8.14037 48.2936 8.14037 48.9067Z" fill="#8F1822"/>
<path d="M7.88552 48.4686C7.95536 48.734 7.87964 48.9839 7.71718 49.0273C7.55472 49.0707 7.3658 48.8906 7.29523 48.6244C7.22613 48.3591 7.30111 48.1084 7.46357 48.065C7.62676 48.0224 7.81569 48.2025 7.88552 48.4686Z" fill="#BD1C2D"/>
<path d="M7.85262 49.3316C7.79381 49.4389 7.6931 49.4962 7.62768 49.4602C7.56152 49.4235 7.55637 49.3073 7.61445 49.2007C7.67325 49.0927 7.77396 49.0353 7.84012 49.0721C7.90555 49.1081 7.91143 49.2243 7.85262 49.3316Z" fill="#BD1C2D"/>
<path d="M29.2437 56.5328C29.2437 57.2965 28.627 57.9155 27.8661 57.9155C27.1053 57.9155 26.4878 57.2965 26.4878 56.5328C26.4878 55.7697 27.1053 55.1508 27.8661 55.1508C28.627 55.1508 29.2437 55.7697 29.2437 56.5328Z" fill="#BE1C2E"/>
<path d="M29.1767 56.5452C29.1767 57.2539 28.6114 57.8295 27.9153 57.8295C27.2176 57.8295 26.6523 57.2539 26.6523 56.5452C26.6523 55.8358 27.2176 55.2603 27.9153 55.2603C28.6114 55.2603 29.1767 55.8358 29.1767 56.5452Z" fill="#B21B2B"/>
<path d="M29.2035 56.5328C29.2035 57.1782 28.6602 57.7009 27.9898 57.7009C27.3201 57.7009 26.7769 57.1782 26.7769 56.5328C26.7769 55.8873 27.3201 55.3647 27.9898 55.3647C28.6602 55.3647 29.2035 55.8873 29.2035 56.5328Z" fill="#A71B28"/>
<path d="M29.1389 56.5247C29.1389 57.1385 28.6464 57.6354 28.0392 57.6354C27.432 57.6354 26.9395 57.1385 26.9395 56.5247C26.9395 55.9109 27.432 55.4139 28.0392 55.4139C28.6464 55.4139 29.1389 55.9109 29.1389 56.5247Z" fill="#8F1822"/>
<path d="M28.8842 56.0858C28.9541 56.3512 28.8791 56.6019 28.7159 56.6445C28.5534 56.6879 28.3645 56.5078 28.2947 56.2417C28.2248 55.9763 28.2998 55.7256 28.463 55.6823C28.6262 55.6396 28.8144 55.8197 28.8842 56.0858Z" fill="#BD1C2D"/>
<path d="M11.8551 56.5247C11.8551 57.2878 11.2383 57.9067 10.4775 57.9067C9.71588 57.9067 9.09912 57.2878 9.09912 56.5247C9.09912 55.7609 9.71588 55.142 10.4775 55.142C11.2383 55.142 11.8551 55.7609 11.8551 56.5247Z" fill="#BE1C2E"/>
<path d="M11.7885 56.5364C11.7885 57.2466 11.2232 57.8214 10.5263 57.8214C9.82946 57.8214 9.26416 57.2466 9.26416 56.5364C9.26416 55.8271 9.82946 55.2522 10.5263 55.2522C11.2232 55.2522 11.7885 55.8271 11.7885 56.5364Z" fill="#B21B2B"/>
<path d="M11.8153 56.5247C11.8153 57.1701 11.272 57.6928 10.6016 57.6928C9.93118 57.6928 9.38867 57.1701 9.38867 56.5247C9.38867 55.8792 9.93118 55.3558 10.6016 55.3558C11.272 55.3558 11.8153 55.8792 11.8153 56.5247Z" fill="#A71B28"/>
<path d="M11.7495 56.5167C11.7495 57.1298 11.2577 57.6275 10.6505 57.6275C10.0426 57.6275 9.55078 57.1298 9.55078 56.5167C9.55078 55.9029 10.0426 55.4052 10.6505 55.4052C11.2577 55.4052 11.7495 55.9029 11.7495 56.5167Z" fill="#8F1822"/>
<path d="M11.496 56.0777C11.5659 56.3431 11.4909 56.5938 11.3277 56.6364C11.1645 56.6798 10.9763 56.499 10.9065 56.2336C10.8366 55.9682 10.9116 55.7175 11.0748 55.6749C11.2373 55.6315 11.4262 55.8116 11.496 56.0777Z" fill="#BD1C2D"/>
<path d="M11.4628 56.9408C11.404 57.0489 11.3033 57.1062 11.2378 57.0695C11.1717 57.0335 11.1658 56.9173 11.2246 56.81C11.2834 56.7027 11.3849 56.6453 11.4503 56.6814C11.5164 56.7181 11.5216 56.8343 11.4628 56.9408Z" fill="#BD1C2D"/>
<path d="M19.7286 49.7034C19.7286 50.4665 19.1118 51.0854 18.351 51.0854C17.5894 51.0854 16.9727 50.4665 16.9727 49.7034C16.9727 48.9404 17.5894 48.3214 18.351 48.3214C19.1118 48.3214 19.7286 48.9404 19.7286 49.7034Z" fill="#BE1C2E"/>
<path d="M19.6616 49.7161C19.6616 50.4248 19.0963 51.0004 18.4001 51.0004C17.7025 51.0004 17.1372 50.4248 17.1372 49.7161C17.1372 49.0067 17.7025 48.4312 18.4001 48.4312C19.0963 48.4312 19.6616 49.0067 19.6616 49.7161Z" fill="#B21B2B"/>
<path d="M19.6878 49.7036C19.6878 50.349 19.1446 50.8717 18.4742 50.8717C17.8045 50.8717 17.2612 50.349 17.2612 49.7036C17.2612 49.0582 17.8045 48.5355 18.4742 48.5355C19.1446 48.5355 19.6878 49.0582 19.6878 49.7036Z" fill="#A71B28"/>
<path d="M19.6233 49.6955C19.6233 50.3093 19.1308 50.807 18.5236 50.807C17.9164 50.807 17.4238 50.3093 17.4238 49.6955C17.4238 49.0817 17.9164 48.584 18.5236 48.584C19.1308 48.584 19.6233 49.0817 19.6233 49.6955Z" fill="#8F1822"/>
<path d="M19.3691 49.2565C19.4389 49.5226 19.3639 49.7725 19.2008 49.8152C19.0383 49.8586 18.8494 49.6777 18.7795 49.4123C18.7097 49.147 18.7847 48.8963 18.9479 48.8537C19.1111 48.811 19.2993 48.9911 19.3691 49.2565Z" fill="#BD1C2D"/>
<path d="M19.3369 50.1204C19.2781 50.2269 19.1774 50.285 19.1112 50.2483C19.0458 50.2122 19.0399 50.0954 19.0987 49.9888C19.1575 49.8814 19.2582 49.8241 19.3244 49.8601C19.3898 49.8961 19.3949 50.013 19.3369 50.1204Z" fill="#BD1C2D"/>
<path d="M14.6331 32.9834L14.9757 31.1751L13.6855 29.8666L15.5057 29.6357L16.3481 28.0001L17.1295 29.6651L18.9409 29.9629L17.6037 31.2236L17.8808 33.043L16.2724 32.1572L14.6331 32.9834Z" fill="#F7A62B"/>
<path d="M28.3256 72.1788H19.2021V65.8737H28.3256V72.1788Z" fill="#BE1C2E"/>
<path d="M29.1618 66.52H18.3667V63.6957H29.1618V66.52Z" fill="#9F1A25"/>
<path d="M24.926 66.52H22.603V63.6957H24.926V66.52Z" fill="#F48517"/>
<path d="M24.8052 72.1788H22.7227V66.5199H24.8052V72.1788Z" fill="#E58016"/>
<path d="M23.7192 63.2047C23.7192 63.2047 26.3458 66.0606 27.2897 64.9072C28.2336 63.7545 27.8432 61.3389 27.0331 61.1809C25.6526 60.6332 23.7192 63.2047 23.7192 63.2047Z" fill="#E58016"/>
<path d="M24.2832 63.642C24.2832 63.642 25.949 65.0637 26.6591 65.0372C27.3692 65.0107 27.4052 64.4359 26.9259 64.2256C26.1416 63.811 24.2832 63.642 24.2832 63.642Z" fill="#C7731A"/>
<path d="M23.7193 63.2047C23.7193 63.2047 21.0927 66.0606 20.1488 64.9072C19.2049 63.7545 19.5953 61.3389 20.4054 61.1809C21.7859 60.6332 23.7193 63.2047 23.7193 63.2047Z" fill="#E58016"/>
<path d="M23.1555 63.642C23.1555 63.642 21.4904 65.0637 20.7796 65.0372C20.0695 65.0107 20.0335 64.4359 20.5127 64.2256C21.2971 63.811 23.1555 63.642 23.1555 63.642Z" fill="#C7731A"/>
<path d="M24.6568 62.9663C24.6568 63.5853 24.237 64.0874 23.7195 64.0874C23.202 64.0874 22.7822 63.5853 22.7822 62.9663C22.7822 62.3474 23.202 61.846 23.7195 61.846C24.237 61.846 24.6568 62.3474 24.6568 62.9663Z" fill="#C7731A"/>
<path d="M12.9803 72.1789H5.14258V66.7618H12.9803V72.1789Z" fill="#BE1C2E"/>
<path d="M13.6985 67.3169H4.42432V64.891H13.6985V67.3169Z" fill="#9F1A25"/>
<path d="M10.0586 67.3169H8.06348V64.891H10.0586V67.3169Z" fill="#F48517"/>
<path d="M9.95576 72.1789H8.1665V67.3168H9.95576V72.1789Z" fill="#E58016"/>
<path d="M9.02295 64.4682C9.02295 64.4682 11.279 66.922 12.0906 65.9318C12.9014 64.9409 12.5662 62.8657 11.87 62.7297C10.6836 62.26 9.02295 64.4682 9.02295 64.4682Z" fill="#E58016"/>
<path d="M9.5083 64.8447C9.5083 64.8447 10.9381 66.0664 11.549 66.0429C12.1591 66.0201 12.1893 65.5261 11.7776 65.3453C11.1035 64.9902 9.5083 64.8447 9.5083 64.8447Z" fill="#C7731A"/>
<path d="M9.02304 64.4682C9.02304 64.4682 6.76625 66.922 5.95542 65.9318C5.14459 64.9409 5.47981 62.8657 6.17596 62.7297C7.36169 62.26 9.02304 64.4682 9.02304 64.4682Z" fill="#E58016"/>
<path d="M8.53794 64.8447C8.53794 64.8447 7.10741 66.0664 6.49727 66.0429C5.88712 66.0201 5.85625 65.5261 6.26791 65.3453C6.94201 64.9902 8.53794 64.8447 8.53794 64.8447Z" fill="#C7731A"/>
<path d="M9.82865 64.2646C9.82865 64.7961 9.46771 65.2269 9.02297 65.2269C8.57749 65.2269 8.21729 64.7961 8.21729 64.2646C8.21729 63.7324 8.57749 63.3016 9.02297 63.3016C9.46771 63.3016 9.82865 63.7324 9.82865 64.2646Z" fill="#C7731A"/>
<path d="M52.3713 3.63845C52.3713 3.63845 53.7664 4.98125 54.0784 6.64181C54.3878 8.30028 55.5767 10.2859 55.8113 10.9094C56.0411 11.5371 53.0592 13.9819 48.1251 14.6195C43.1885 15.2572 39.024 14.3772 38.2973 13.283C37.5707 12.1941 38.8303 7.46477 40.0605 5.60265C41.2839 3.74158 48.7978 1.85172 52.3713 3.63845Z" fill="#BE0A26"/>
<path d="M75.0001 44.8819C75.0046 58.719 63.7723 69.9388 49.9129 69.9388C36.0544 69.9388 24.8212 58.719 24.8257 44.8819C24.8221 31.0448 36.0544 19.8258 49.9129 19.8258C63.7723 19.8258 75.0055 31.0448 75.0001 44.8819Z" fill="#939DAC"/>
<path d="M27.686 67.8639C27.6843 73.0504 31.8947 73.7111 37.0892 73.7111C42.2837 73.7111 46.4941 73.0504 46.4923 67.8639C46.4941 62.6774 42.1064 59.8152 37.0892 58.4723C29.2845 56.384 27.6851 62.6783 27.686 67.8639Z" fill="#939DAC"/>
<path d="M40.0649 59.5001C41.3517 61.1832 42.1408 63.2857 42.1408 65.8816C42.1425 72.0156 37.9303 72.7993 32.7367 72.7993C31.9326 72.7993 31.1551 72.7752 30.4106 72.72C32.1142 73.5464 34.4759 73.7139 37.0879 73.7139C42.2824 73.7139 46.4937 73.0478 46.4919 67.8613C46.4937 63.739 43.7206 61.0897 40.0649 59.5001Z" fill="#010101" fill-opacity="0.3137"/>
<path d="M44.4084 70.7894C44.7851 72.1902 43.6639 72.6809 42.2221 73.0674C40.7803 73.453 39.5639 73.5874 39.1881 72.1857C38.8123 70.7849 39.6752 69.336 41.117 68.9504C42.5596 68.5639 44.0326 69.3877 44.4084 70.7894Z" fill="white"/>
<path d="M34.9181 72.3076C34.5422 73.7093 33.3258 73.5749 31.884 73.1893C30.4413 72.8037 29.321 72.3121 29.6969 70.9104C30.0735 69.5096 31.5465 68.6858 32.9883 69.0723C34.43 69.4579 35.2939 70.9068 34.9181 72.3076Z" fill="white"/>
<path d="M72.1422 67.8639C72.1431 73.0504 67.9336 73.7111 62.7391 73.7111C57.5446 73.7111 53.3342 73.0504 53.3359 67.8639C53.3342 62.6774 57.7218 59.8152 62.7391 58.4723C70.5446 56.384 72.1431 62.6783 72.1422 67.8639Z" fill="#939DAC"/>
<path d="M70.2892 70.7893C70.6659 72.1901 69.5447 72.6808 68.103 73.0673C66.6612 73.4529 65.4447 73.5874 65.0689 72.1857C64.6931 70.7849 65.556 69.336 66.9978 68.9504C68.4396 68.5648 69.9134 69.3876 70.2892 70.7893Z" fill="white"/>
<path d="M60.7961 72.3076C60.4203 73.7093 59.2038 73.5749 57.762 73.1893C56.3202 72.8037 55.2 72.3121 55.5758 70.9104C55.9525 69.5096 57.4254 68.6858 58.8672 69.0723C60.3089 69.4579 61.1728 70.9068 60.7961 72.3076Z" fill="white"/>
<path d="M66.9813 58.2016C69.4 60.0655 70.0385 63.8431 70.0376 67.1773C70.0394 72.5436 65.6847 73.2302 60.3112 73.2302C59.1455 73.2302 58.0332 73.192 56.9976 73.0869C58.5854 73.5945 60.5748 73.7085 62.737 73.7085C67.9315 73.7085 72.1429 73.0495 72.142 67.863C72.1429 63.7995 71.1597 59.061 66.9813 58.2016Z" fill="#010101" fill-opacity="0.3137"/>
<path d="M73.3328 39.2796C74.9357 48.884 67.6672 56.5898 52.2806 58.3174C39.3794 59.7654 26.7792 51.1843 26.7837 40.2512C34.1128 29.1222 54.7153 16.5354 54.8302 27.4676C54.8783 32.1714 67.8382 20.6995 73.3346 39.2796H73.3328Z" fill="#010101" fill-opacity="0.3137"/>
<path d="M68.5487 32.24C68.3109 28.945 67.4729 25.8531 66.1692 23.1165C67.6377 22.0185 68.6208 20.0744 68.6208 17.8632C68.6208 14.44 66.2814 11.6616 63.4014 11.6616C61.5393 11.6616 59.9123 12.8291 58.9879 14.5736C56.2371 12.7231 53.0596 11.6616 49.6738 11.6616C46.2889 11.6616 43.1186 12.724 40.3677 14.5736C39.4443 12.8291 37.8164 11.6616 35.9543 11.6616C33.0743 11.6616 30.7357 14.44 30.7357 17.8632C30.7357 20.078 31.7153 22.0194 33.1865 23.1165C31.8827 25.8531 31.0456 28.945 30.8079 32.24C28.4061 34.762 27.0044 37.7925 27.0044 41.0518C27.0044 49.8298 37.1556 56.9452 49.6783 56.9452C62.2001 56.9452 72.3513 49.8298 72.3513 41.0518C72.3513 37.7925 70.9505 34.762 68.5487 32.24Z" fill="#939DAC"/>
<path d="M61.717 42.9655C60.8336 44.7866 59.2102 45.6415 58.0926 44.8748C56.9758 44.1089 56.7879 42.0117 57.6722 40.1915C58.5565 38.3712 60.18 37.5163 61.2967 38.2822C62.4134 39.0489 62.6022 41.1461 61.717 42.9655Z" fill="#010101"/>
<path d="M37.6404 42.9655C38.5238 44.7866 40.1472 45.6415 41.264 44.8748C42.3816 44.1089 42.5695 42.0117 41.6843 40.1915C40.8009 38.3712 39.1774 37.5163 38.0607 38.2822C36.944 39.0489 36.7552 41.1461 37.6404 42.9655Z" fill="#010101"/>
<path d="M63.2289 14.5887C62.1816 14.5887 61.2679 15.2441 60.7461 16.2228C62.3473 17.5043 63.7249 19.1402 64.8025 21.0424C65.6236 20.4226 66.1712 19.3272 66.1712 18.0858C66.1712 16.156 64.8523 14.5887 63.2289 14.5887Z" fill="#E6E6E6"/>
<path d="M35.7054 14.5887C36.7518 14.5887 37.6664 15.2441 38.1882 16.2228C36.5871 17.5043 35.2085 19.1402 34.1318 21.0424C33.3099 20.4226 32.7622 19.3272 32.7622 18.0858C32.7622 16.156 34.0811 14.5887 35.7054 14.5887Z" fill="#E6E6E6"/>
<path d="M71.902 37.9643C70.7728 48.8448 65.4136 52.9128 53.1216 54.2771C47.6252 54.8871 44.1138 55.4971 33.96 52.6759C43.2741 57.5551 44.7247 56.4874 52.0529 56.7163C57.6642 56.8917 66.7102 54.3528 71.2145 46.273C73.7339 40.0989 72.1265 39.1585 71.902 37.9643Z" fill="#010101" fill-opacity="0.3137"/>
<path d="M58.8999 32.3233C56.5449 32.3233 54.89 30.7192 53.1265 29.3741C50.9733 27.743 48.4705 27.743 46.3178 29.3741C44.5549 30.7192 42.8994 32.3233 40.5444 32.3233C36.8438 32.3233 34.1927 29.0204 34.1927 25.4193C34.1927 21.8182 36.8438 18.5153 40.5444 18.5153C46.6541 18.5153 52.777 18.5153 58.8999 18.5153C62.5873 18.5153 65.2515 21.8182 65.2515 25.4193C65.2515 29.0204 62.5873 32.3233 58.8999 32.3233ZM58.8999 17.5366C52.777 17.5366 46.6541 17.5366 40.5444 17.5366C36.4937 17.5366 33.2236 21.0704 33.2236 25.4193C33.2236 29.7681 36.4937 33.3014 40.5444 33.3014C43.2627 33.3014 45.0929 31.5348 46.8961 30.1621C48.713 28.7895 50.7318 28.7895 52.535 30.1621C54.3514 31.5348 56.1816 33.3014 58.8999 33.3014C62.9506 33.3014 66.2207 29.7681 66.2207 25.4193C66.2207 21.0704 62.9506 17.5366 58.8999 17.5366Z" fill="black"/>
<path d="M30.5594 23.3127C30.2231 23.3127 29.9541 23.5844 29.9541 23.9244V25.3786C29.9541 25.7186 30.2231 25.9903 30.5594 25.9903H32.8339C32.8201 25.7996 32.8201 25.6095 32.8201 25.4194C32.8201 24.6854 32.9144 23.9784 33.0759 23.3127H30.5594Z" fill="black"/>
<path d="M58.8997 18.9231C52.7768 18.9231 46.6539 18.9231 40.5443 18.9231C37.0592 18.9231 34.5967 22.0492 34.5967 25.4193C34.5967 28.7895 37.0592 31.9151 40.5443 31.9151C42.778 31.9151 44.4064 30.3253 46.0751 29.0474C48.3761 27.3083 51.0679 27.3083 53.3689 29.0474C55.0376 30.3253 56.6655 31.9151 58.8997 31.9151C62.3716 31.9151 64.8473 28.7895 64.8473 25.4193C64.8473 22.0492 62.3716 18.9231 58.8997 18.9231Z" fill="black"/>
<path d="M68.8847 23.3127H66.355C66.5297 23.9784 66.624 24.6854 66.624 25.4194C66.624 25.6095 66.624 25.7996 66.6108 25.9903H68.8847C69.221 25.9903 69.4906 25.7186 69.4906 25.3786V23.9244C69.4906 23.5844 69.221 23.3127 68.8847 23.3127Z" fill="black"/>
<path d="M42.4057 25.4641L42.2939 25.4419L39.3051 24.8486C39.3051 24.8486 39.3051 24.8486 39.305 24.8486L39.3049 24.8485L39.327 24.7367C39.2104 24.7139 39.1182 24.6264 39.0891 24.5113C39.0599 24.3963 39.0993 24.2757 39.1907 24.1993L42.4057 25.4641ZM42.4057 25.4641L42.4279 25.3524L42.5477 24.7503L42.57 24.6385L42.4581 24.6163L40.3367 24.1948M42.4057 25.4641L40.3367 24.1948M40.3367 24.1948L43.3786 21.6716L40.3367 24.1948ZM40.0385 21.1668L42.1599 21.5882L43.4076 21.2717C43.3784 21.1574 43.2854 21.0691 43.1696 21.0463L43.1918 20.9345L43.1917 20.9345C43.1917 20.9345 43.1917 20.9345 43.1916 20.9345L40.2035 20.3411L40.0919 20.3189L40.0695 20.4305L39.949 21.0326L39.9265 21.1445L40.0385 21.1668Z" fill="white" stroke="white" stroke-width="0.227977"/>
<path d="M48.1487 20.912L48.0369 20.8898L45.7957 20.4445L45.7957 20.4445L45.8179 20.3327C45.7304 20.3154 45.6611 20.25 45.639 20.1641C45.6169 20.0782 45.6469 19.9867 45.7154 19.93L48.1487 20.912ZM48.1487 20.912L48.1709 20.8002L48.2607 20.3486L48.283 20.2368L48.1711 20.2146L46.6392 19.9105L48.875 18.0555L48.8754 18.0552C48.9763 17.9707 49.0215 17.8353 48.9883 17.7061C48.9554 17.5781 48.852 17.4792 48.7212 17.4533C48.7212 17.4533 48.7212 17.4533 48.7212 17.4532L46.48 17.008L46.3682 16.9858L46.346 17.0976L46.2561 17.5491L46.2339 17.6609L46.3457 17.6832L47.8778 17.9879L48.1487 20.912Z" fill="white" stroke="white" stroke-width="0.227977"/>
<path d="M52.6348 17.006L52.5231 16.9838L51.0289 16.6875L51.0284 16.6874C50.9266 16.6668 50.8476 16.5898 50.8218 16.4911M52.6348 17.006L53.1137 15.0865C53.1934 15.0205 53.2278 14.9145 53.2017 14.8141L53.0914 14.8428M52.6348 17.006L52.657 16.8942L52.7169 16.5932L52.7392 16.4814L52.6274 16.4592L51.6848 16.2718L53.1136 15.0866L52.6348 17.006ZM50.8218 16.4911C50.7952 16.3899 50.832 16.2847 50.9091 16.2198L50.9097 16.2193L50.9097 16.2193L52.3387 15.0332L51.3961 14.8458L51.2843 14.8236L51.3065 14.7118L51.3664 14.4107L51.3887 14.299L51.5004 14.3212L52.9946 14.6183L52.995 14.6184C53.095 14.6386 53.1769 14.7137 53.202 14.8155L53.0914 14.8428M50.8218 16.4911C50.8218 16.4912 50.8219 16.4912 50.8219 16.4913L50.9321 16.4622L50.8218 16.4909C50.8218 16.491 50.8218 16.4911 50.8218 16.4911ZM53.0914 14.8428C53.0772 14.7852 53.0307 14.7419 52.9724 14.7301L53.0409 14.9988C53.0866 14.961 53.1063 14.9003 53.0914 14.8428Z" fill="white" stroke="white" stroke-width="0.227977"/>
<path d="M40.0002 12.8024L42.8119 14.1849L41.8879 16.0706L39.0762 14.688L40.0002 12.8024Z" fill="url(#paint0_linear_178:4636)"/>
<path d="M40.0556 3.9447L48.1636 7.93173L43.6871 17.0664L35.5796 13.0794L40.0556 3.9447Z" fill="url(#paint1_linear_178:4636)"/>
<path d="M55.2141 9.4625L56.5145 8.3045L56.0271 9.50491L56.9427 9.65882H57.5542L55.8952 11L56.793 11.4215L56.6794 11.8764L57.5259 12.2224L56.9255 12.5852L57.8044 12.8789L56.7208 13.3532L56.0659 13.6228L55.9004 14.8044L55.4439 14.7295L55.2633 15.2514L54.5357 14.6766L54.3472 15.1253L53.2635 14.6002L53.1866 15.0452L53.2635 15.6964L52.5411 15.4933L51.7621 15.0708L52.4149 16.6989V17.8517L51.5637 17.1549L51.1946 16.5037L50.6554 16.868L50.2811 16.4393L49.8529 16.4304L49.4168 15.3629L48.976 15.8278L48.63 17.5104L48.1656 16.7639L47.6034 15.576L47.2113 16.0995L47.1516 17.902L46.8113 17.5685L45.7999 16.2754L45.5418 16.7031L45.7507 18.6631L44.9612 17.5465L44.4299 17.1434L43.821 16.4042L43.7823 17.9072L43.3876 18.0224L42.7013 16.5984L42.74 19.3777L42.1877 18.6684L41.7338 18.1789L40.8926 18.9113L40.369 19.0819L40.5622 17.6538L40.1701 17.469L40.4151 16.0786L39.8942 16.2068L38.6043 17.5156L37.83 17.6758L37.8792 16.6937L38.2431 15.9147L38.8158 15.4352L38.8854 14.8808L36.6333 15.2054L38.9551 13.7579L38.7179 13.3092L38.7101 13.2679L38.475 12.481L38.7718 12.981L39.0325 13.2564L39.4864 12.0858L39.9796 11.3492L40.2528 12.7705L40.7454 12.1125L41.2281 10.8372L41.5972 12.5638L42.1102 12.5727L42.6856 12.202L43.2687 11.4974L43.452 12.2224L44.0195 12.0067V13.3391L44.5304 11.689L45.5936 13.4684L45.6811 12.4292L45.7015 11.0749L46.525 12.3722L46.4962 10.7519L47.149 11.5455L47.7709 12.3722L47.8589 10.8116L48.4263 10.7001L48.7771 10.1279L49.1409 10.3216L49.5152 10.4634L49.9147 10.955L50.413 11.9591L50.8072 11.7508L51.3648 12.3313L51.6072 11.4058L52.3867 11.689L52.1699 10.6147L52.5568 10.4367L53.1321 10.7959L53.9294 11.7508L53.9965 10.6587L53.8028 9.13165L54.0247 8.82644L55.2141 9.4625Z" fill="#F5F5F5"/>
<path d="M44.7497 6.52086C44.7497 6.52086 42.1762 9.24571 41.5202 10.3938C40.869 11.5397 39.1079 13.5877 38.2782 15.2095C37.4458 16.8303 33.987 22.0271 33.0363 21.6753C32.5227 21.1801 33.1159 20.008 33.0708 17.8307C33.0279 15.6534 32.1636 12.1664 33.3933 10.0781C34.6319 7.98982 35.7261 4.61267 36.2119 3.71172C36.6956 2.81233 39.9141 -0.469007 43.419 0.0565933C46.9171 0.586382 49.4215 0.899439 50.9999 2.25532C52.5777 3.6133 53.4483 5.05242 53.4483 5.05242C53.4483 5.05242 49.0692 6.5041 44.7497 6.52086Z" fill="#BE0A26"/>
<path d="M35.7127 22.3333L35.5258 22.5527L35.629 22.794L35.4766 22.9976L35.4138 23.2128L35.0636 23.3034L35.0892 23.5426L35.3688 23.9756L35.0531 24.0431L34.6511 23.9871L34.5992 24.2263L34.7369 24.7509L34.4637 24.7969L34.0469 24.5357L33.8962 24.7079L33.8726 25.2927L33.535 25.0158L33.2858 24.9147L33.0533 24.699L32.8575 25.1095L32.6298 25.1074L32.4707 24.6603L32.0901 25.3634L31.9137 25.087L31.7461 24.8713L31.4195 24.9922L31.1441 24.9545L31.1724 24.5043L30.9959 24.3567L31.1122 23.941L30.9054 23.8546L30.3724 23.9604L30.106 23.8248L30.1808 23.5102L30.2604 23.2269L30.3489 22.9683V22.7521L29.6992 22.5925L30.4457 22.3333L30.4478 22.1318L29.9212 21.8412L30.5379 21.7438L30.0777 21.3737L30.2756 21.1973L30.7703 21.2015L30.6818 20.9073L30.9316 20.8298L31.1164 20.7267L31.0305 20.344L31.0687 20.0273L31.4708 20.2094L31.5613 19.9315L31.6194 19.5001L32.0105 19.8566L32.2215 19.8142L32.4298 19.766L32.6408 19.7273L32.8575 19.486L33.0795 19.6624L33.3177 19.575L33.4596 19.9566L33.8145 19.5388V20.1461L34.1155 19.9974L34.5024 19.81L34.4532 20.2786L34.9133 20.0985L34.8982 20.4508L34.8359 20.79L35.3086 20.7288L35.4463 20.9298L35.6981 21.0863L35.7431 21.3413L35.7709 21.592L35.6829 21.8606L35.4185 22.1197L35.7127 22.3333Z" fill="#F5F5F5"/>
<defs>
<linearGradient id="paint0_linear_178:4636" x1="41.3457" y1="13.4638" x2="40.419" y2="15.3483" gradientUnits="userSpaceOnUse">
<stop stop-color="#A6141D"/>
<stop offset="0.03125" stop-color="#A6141D"/>
<stop offset="0.0625" stop-color="#A5141D"/>
<stop offset="0.09375" stop-color="#A5141D"/>
<stop offset="0.125" stop-color="#A4141D"/>
<stop offset="0.15625" stop-color="#A4141D"/>
<stop offset="0.1875" stop-color="#A3141C"/>
<stop offset="0.21875" stop-color="#A3141C"/>
<stop offset="0.25" stop-color="#A2131C"/>
<stop offset="0.375" stop-color="#A2131C"/>
<stop offset="0.5" stop-color="#A1131C"/>
<stop offset="1" stop-color="#A1131C"/>
</linearGradient>
<linearGradient id="paint1_linear_178:4636" x1="44.8545" y1="6.30428" x2="40.3654" y2="15.4329" gradientUnits="userSpaceOnUse">
<stop stop-color="#A80106"/>
<stop offset="0.03125" stop-color="#A80106"/>
<stop offset="0.046875" stop-color="#A70106"/>
<stop offset="0.0546875" stop-color="#A60106"/>
<stop offset="0.0625" stop-color="#A50106"/>
<stop offset="0.078125" stop-color="#A50106"/>
<stop offset="0.0859375" stop-color="#A50106"/>
<stop offset="0.09375" stop-color="#A40106"/>
<stop offset="0.101562" stop-color="#A40106"/>
<stop offset="0.105469" stop-color="#A30106"/>
<stop offset="0.109375" stop-color="#A20106"/>
<stop offset="0.125" stop-color="#A20106"/>
<stop offset="0.128906" stop-color="#A10106"/>
<stop offset="0.132812" stop-color="#A10106"/>
<stop offset="0.140625" stop-color="#A10106"/>
<stop offset="0.15625" stop-color="#A00106"/>
<stop offset="0.171875" stop-color="#9F0106"/>
<stop offset="0.179687" stop-color="#9F0106"/>
<stop offset="0.1875" stop-color="#9E0106"/>
<stop offset="0.195312" stop-color="#9E0106"/>
<stop offset="0.199219" stop-color="#9D0106"/>
<stop offset="0.203125" stop-color="#9C0106"/>
<stop offset="0.21875" stop-color="#9C0106"/>
<stop offset="0.234375" stop-color="#9C0106"/>
<stop offset="0.238281" stop-color="#9B0106"/>
<stop offset="0.242187" stop-color="#9A0106"/>
<stop offset="0.25" stop-color="#9A0106"/>
<stop offset="0.265625" stop-color="#9A0106"/>
<stop offset="0.28125" stop-color="#990106"/>
<stop offset="0.289062" stop-color="#990106"/>
<stop offset="0.296875" stop-color="#980105"/>
<stop offset="0.3125" stop-color="#970105"/>
<stop offset="0.328125" stop-color="#970105"/>
<stop offset="0.335937" stop-color="#960105"/>
<stop offset="0.34375" stop-color="#950105"/>
<stop offset="0.359375" stop-color="#950105"/>
<stop offset="0.375" stop-color="#940105"/>
<stop offset="0.382812" stop-color="#940105"/>
<stop offset="0.390625" stop-color="#930105"/>
<stop offset="0.40625" stop-color="#920105"/>
<stop offset="0.421875" stop-color="#910105"/>
<stop offset="0.429687" stop-color="#900105"/>
<stop offset="0.4375" stop-color="#900105"/>
<stop offset="0.453125" stop-color="#8F0105"/>
<stop offset="0.46875" stop-color="#8E0105"/>
<stop offset="0.484375" stop-color="#8E0105"/>
<stop offset="0.488281" stop-color="#8D0105"/>
<stop offset="0.492187" stop-color="#8C0105"/>
<stop offset="0.5" stop-color="#8C0105"/>
<stop offset="0.507812" stop-color="#8C0105"/>
<stop offset="0.515625" stop-color="#8B0105"/>
<stop offset="0.53125" stop-color="#8A0105"/>
<stop offset="0.546875" stop-color="#8A0105"/>
<stop offset="0.5625" stop-color="#890105"/>
<stop offset="0.578125" stop-color="#880105"/>
<stop offset="0.59375" stop-color="#880105"/>
<stop offset="0.601562" stop-color="#870105"/>
<stop offset="0.609375" stop-color="#860105"/>
<stop offset="0.625" stop-color="#850105"/>
<stop offset="0.640625" stop-color="#850105"/>
<stop offset="0.648438" stop-color="#840105"/>
<stop offset="0.65625" stop-color="#840105"/>
<stop offset="0.660156" stop-color="#830105"/>
<stop offset="0.664062" stop-color="#820105"/>
<stop offset="0.671875" stop-color="#820105"/>
<stop offset="0.679688" stop-color="#820105"/>
<stop offset="0.6875" stop-color="#820104"/>
<stop offset="0.695312" stop-color="#820104"/>
<stop offset="0.699219" stop-color="#810104"/>
<stop offset="0.703125" stop-color="#800104"/>
<stop offset="0.71875" stop-color="#7F0104"/>
<stop offset="0.734375" stop-color="#7F0104"/>
<stop offset="0.742188" stop-color="#7E0104"/>
<stop offset="0.75" stop-color="#7E0104"/>
<stop offset="0.757813" stop-color="#7D0104"/>
<stop offset="0.765625" stop-color="#7C0104"/>
<stop offset="0.78125" stop-color="#7C0104"/>
<stop offset="0.789063" stop-color="#7C0104"/>
<stop offset="0.796875" stop-color="#7B0104"/>
<stop offset="0.804688" stop-color="#7B0104"/>
<stop offset="0.8125" stop-color="#7A0104"/>
<stop offset="0.84375" stop-color="#790104"/>
<stop offset="0.875" stop-color="#790104"/>
<stop offset="1" stop-color="#780104"/>
</linearGradient>
</defs>
</svg>
