<svg width="95" height="127" viewBox="0 0 95 127" fill="none" xmlns="http://www.w3.org/2000/svg">
<path d="M64.2101 10.7909C59.4602 12.4745 55.1651 15.2315 51.669 18.8411C48.1729 22.4506 45.573 26.8123 44.0777 31.5766C42.5823 36.341 42.2331 41.3754 43.0581 46.2766C43.883 51.1777 45.8591 55.8093 48.828 59.8001L25.9975 106.86L33.0878 126.85L53.3647 119.658L76.1951 72.5972C80.8226 72.3652 85.3541 71.1497 89.4808 69.0335C93.6075 66.9174 97.2324 63.9503 100.108 60.3346C102.985 56.7188 105.044 52.5394 106.147 48.0811C107.25 43.6227 107.37 38.9903 106.499 34.4995C105.628 30.0087 103.787 25.765 101.101 22.0577C98.4145 18.3505 94.9464 15.2667 90.9329 13.0166C86.9194 10.7665 82.4548 9.4029 77.8432 9.01881C73.2317 8.63472 68.5817 9.23915 64.2101 10.7909ZM83.1174 64.0957C80.7902 64.9198 78.3561 65.4015 75.8934 65.5254L71.6059 65.7409L69.7444 69.5781L62.7533 83.9888L56.4646 81.0509L53.357 87.4567L59.6468 90.3979L56.1612 97.5829L49.8713 94.6417L46.7636 101.048L53.0535 103.989L48.203 113.987L37.4833 117.789L33.735 107.222L55.2775 62.816L57.1424 58.9777L54.6109 55.5735C51.5015 51.3917 49.8134 46.3347 49.7869 41.122C49.7603 35.9092 51.3967 30.8061 54.4632 26.5385C57.5297 22.271 61.8701 19.0563 66.8671 17.3518C71.8641 15.6473 77.2632 15.5398 82.2964 17.0445C87.3296 18.5492 91.7405 21.5895 94.9018 25.733C98.063 29.8765 99.8137 34.9121 99.9046 40.1236C99.9955 45.3351 98.4222 50.457 95.4083 54.7608C92.3944 59.0647 88.0935 62.3312 83.1174 64.0957Z" fill="#EFF0F8"/>
<path d="M82.4858 36.7236C86.2187 35.3996 88.1866 31.343 86.8813 27.6631C85.5761 23.9832 81.4918 22.0733 77.759 23.3974C74.0261 24.7214 72.0581 28.778 73.3634 32.4579C74.6687 36.1378 78.7529 38.0477 82.4858 36.7236Z" fill="#EFF0F8"/>
</svg>
