<svg width="156" height="156" viewBox="0 0 156 156" fill="none" xmlns="http://www.w3.org/2000/svg">
<path d="M78 0.5C80.0554 0.5 82.0267 1.31652 83.4801 2.76992C84.9335 4.22333 85.75 6.19457 85.75 8.25V16C85.75 18.0554 84.9335 20.0267 83.4801 21.4801C82.0267 22.9335 80.0554 23.75 78 23.75C75.9446 23.75 73.9733 22.9335 72.5199 21.4801C71.0665 20.0267 70.25 18.0554 70.25 16V8.25C70.25 6.19457 71.0665 4.22333 72.5199 2.76992C73.9733 1.31652 75.9446 0.5 78 0.5ZM22.1458 22.1458C23.5991 20.6929 25.57 19.8767 27.625 19.8767C29.68 19.8767 31.6509 20.6929 33.1042 22.1458L40.8542 29.8958C42.266 31.3574 43.0471 33.3151 43.0295 35.3471C43.0118 37.3791 42.1968 39.3229 40.7598 40.7598C39.3229 42.1968 37.3791 43.0118 35.3471 43.0295C33.3151 43.0471 31.3574 42.266 29.8958 40.8543L22.1458 33.1043C20.6929 31.6509 19.8767 29.68 19.8767 27.625C19.8767 25.57 20.6929 23.5991 22.1458 22.1458ZM133.854 22.1458C135.307 23.5991 136.123 25.57 136.123 27.625C136.123 29.68 135.307 31.6509 133.854 33.1043L126.104 40.8543C125.389 41.5945 124.534 42.1849 123.589 42.591C122.643 42.9972 121.626 43.211 120.597 43.2199C119.568 43.2289 118.548 43.0328 117.595 42.6431C116.643 42.2534 115.777 41.678 115.05 40.9503C114.322 40.2226 113.747 39.3573 113.357 38.4049C112.967 37.4524 112.771 36.4319 112.78 35.4029C112.789 34.3739 113.003 33.3569 113.409 32.4114C113.815 31.4658 114.406 30.6107 115.146 29.8958L122.896 22.1458C124.349 20.6929 126.32 19.8767 128.375 19.8767C130.43 19.8767 132.401 20.6929 133.854 22.1458ZM78 47C69.7783 47 61.8933 50.2661 56.0797 56.0797C50.2661 61.8933 47 69.7783 47 78C47 86.2217 50.2661 94.1067 56.0797 99.9203C61.8933 105.734 69.7783 109 78 109C86.2217 109 94.1067 105.734 99.9203 99.9203C105.734 94.1067 109 86.2217 109 78C109 69.7783 105.734 61.8933 99.9203 56.0797C94.1067 50.2661 86.2217 47 78 47ZM31.5 78C31.5012 69.8378 33.6507 61.8197 37.7327 54.7516C41.8147 47.6834 47.6852 41.8143 54.7543 37.7339C61.8233 33.6536 69.8419 31.5059 78.0041 31.5066C86.1663 31.5073 94.1845 33.6564 101.253 37.738C108.321 41.8196 114.191 47.6898 118.271 54.7587C122.352 61.8276 124.5 69.846 124.5 78.0082C124.5 86.1704 122.351 94.1887 118.27 101.257C114.189 108.326 108.319 114.196 101.25 118.277V132.25C101.25 138.416 98.8005 144.33 94.4402 148.69C90.08 153.05 84.1663 155.5 78 155.5C71.8337 155.5 65.92 153.05 61.5598 148.69C57.1995 144.33 54.75 138.416 54.75 132.25V118.277C47.6791 114.196 41.8075 108.325 37.7261 101.255C33.6447 94.1845 31.4973 86.1639 31.5 78ZM70.25 123.857V132.25C70.25 134.305 71.0665 136.277 72.5199 137.73C73.9733 139.184 75.9446 140 78 140C80.0554 140 82.0267 139.184 83.4801 137.73C84.9335 136.277 85.75 134.305 85.75 132.25V123.857C80.6193 124.719 75.3807 124.719 70.25 123.857ZM0.5 78C0.5 75.9446 1.31652 73.9733 2.76992 72.5199C4.22333 71.0665 6.19457 70.25 8.25 70.25H16C18.0554 70.25 20.0267 71.0665 21.4801 72.5199C22.9335 73.9733 23.75 75.9446 23.75 78C23.75 80.0554 22.9335 82.0267 21.4801 83.4801C20.0267 84.9335 18.0554 85.75 16 85.75H8.25C6.19457 85.75 4.22333 84.9335 2.76992 83.4801C1.31652 82.0267 0.5 80.0554 0.5 78ZM132.25 78C132.25 75.9446 133.067 73.9733 134.52 72.5199C135.973 71.0665 137.945 70.25 140 70.25H147.75C149.805 70.25 151.777 71.0665 153.23 72.5199C154.683 73.9733 155.5 75.9446 155.5 78C155.5 80.0554 154.683 82.0267 153.23 83.4801C151.777 84.9335 149.805 85.75 147.75 85.75H140C137.945 85.75 135.973 84.9335 134.52 83.4801C133.067 82.0267 132.25 80.0554 132.25 78Z" fill="#C8C8C8"/>
</svg>
