<svg width="15" height="17" viewBox="0 0 15 17" fill="none" xmlns="http://www.w3.org/2000/svg">
<path d="M7.50001 0.1875C5.76844 0.189543 4.10838 0.878311 2.88397 2.10272C1.65957 3.32712 0.9708 4.98718 0.968757 6.71875C0.966683 8.13379 1.4289 9.51043 2.28451 10.6375C2.28451 10.6375 2.46263 10.872 2.49173 10.9059L7.50001 16.8125L12.5107 10.9029C12.5368 10.8714 12.7155 10.6375 12.7155 10.6375L12.7161 10.6357C13.5713 9.50914 14.0333 8.13314 14.0313 6.71875C14.0292 4.98718 13.3404 3.32712 12.116 2.10272C10.8916 0.878311 9.23158 0.189543 7.50001 0.1875V0.1875ZM7.50001 9.09375C7.03028 9.09375 6.5711 8.95446 6.18053 8.69349C5.78996 8.43252 5.48555 8.0616 5.30579 7.62762C5.12604 7.19365 5.079 6.71612 5.17064 6.25541C5.26228 5.79471 5.48848 5.37152 5.82063 5.03937C6.15278 4.70722 6.57596 4.48102 7.03667 4.38938C7.49737 4.29774 7.97491 4.34478 8.40888 4.52454C8.84285 4.70429 9.21378 5.0087 9.47475 5.39927C9.73572 5.78984 9.87501 6.24902 9.87501 6.71875C9.87422 7.3484 9.62375 7.95203 9.17852 8.39726C8.73329 8.84249 8.12966 9.09296 7.50001 9.09375V9.09375Z" fill="#7986CB"/>
</svg>
