<svg width="8" height="9" viewBox="0 0 8 9" fill="none" xmlns="http://www.w3.org/2000/svg">
<path d="M3.53572 0C2.59833 0.00110587 1.69965 0.373973 1.03681 1.03681C0.373976 1.69964 0.00110963 2.59832 3.76164e-06 3.53571C-0.00111895 4.30175 0.249105 5.047 0.712289 5.65714C0.712289 5.65714 0.808718 5.78411 0.824468 5.80243L3.53572 9L6.24825 5.80082C6.2624 5.78379 6.35915 5.65714 6.35915 5.65714L6.35947 5.65618C6.82242 5.0463 7.07253 4.3014 7.07143 3.53571C7.07033 2.59832 6.69746 1.69964 6.03462 1.03681C5.37179 0.373973 4.47311 0.00110587 3.53572 0V0ZM3.53572 4.82143C3.28143 4.82143 3.03285 4.74602 2.82141 4.60475C2.60998 4.46347 2.44519 4.26267 2.34787 4.02774C2.25056 3.7928 2.2251 3.53429 2.27471 3.28488C2.32432 3.03548 2.44677 2.80639 2.62658 2.62658C2.80639 2.44677 3.03548 2.32431 3.28489 2.2747C3.53429 2.22509 3.79281 2.25056 4.02774 2.34787C4.26267 2.44518 4.46347 2.60998 4.60475 2.82141C4.74603 3.03284 4.82143 3.28142 4.82143 3.53571C4.82101 3.87658 4.68541 4.20336 4.44439 4.44438C4.20336 4.68541 3.87658 4.821 3.53572 4.82143V4.82143Z" fill="#BAB9D0"/>
</svg>
