<svg width="801" height="801" viewBox="0 0 801 801" fill="none" xmlns="http://www.w3.org/2000/svg">
<circle cx="400.5" cy="400.5" r="400.5" fill="#4DD0E1"/>
<g clip-path="url(#clip0_17:12791)">
<path d="M605.316 417.916C605.353 530.716 513.787 622.18 400.805 622.18C287.83 622.18 196.257 530.716 196.293 417.916C196.264 305.116 287.83 213.659 400.805 213.659C513.787 213.659 605.36 305.116 605.316 417.916Z" fill="#939DAC"/>
<path d="M219.611 605.266C219.597 647.546 253.921 652.932 296.266 652.932C338.612 652.932 372.935 647.546 372.921 605.266C372.935 562.985 337.167 539.653 296.266 528.705C232.643 511.681 219.604 562.993 219.611 605.266Z" fill="#939DAC"/>
<path d="M320.528 537.083C331.018 550.804 337.45 567.944 337.45 589.106C337.464 639.11 303.126 645.498 260.788 645.498C254.233 645.498 247.895 645.302 241.826 644.852C255.714 651.589 274.966 652.954 296.259 652.954C338.604 652.954 372.935 647.524 372.921 605.244C372.935 571.639 350.329 550.041 320.528 537.083Z" fill="#010101" fill-opacity="0.3137"/>
<path d="M355.933 629.114C359.004 640.533 349.864 644.533 338.111 647.684C326.357 650.827 316.441 651.924 313.377 640.497C310.314 629.077 317.348 617.266 329.102 614.123C340.862 610.972 352.87 617.687 355.933 629.114Z" fill="white"/>
<path d="M278.567 641.491C275.503 652.918 265.587 651.822 253.833 648.678C242.073 645.535 232.94 641.528 236.004 630.101C239.075 618.681 251.082 611.966 262.835 615.117C274.589 618.26 281.631 630.072 278.567 641.491Z" fill="white"/>
<path d="M316.433 639.604C316.433 651.437 306.567 652.94 294.4 652.94C282.226 652.94 272.367 651.43 272.375 639.604C272.375 627.785 282.233 618.195 294.4 618.195C306.567 618.195 316.433 627.785 316.433 639.604Z" fill="white"/>
<path d="M582.02 605.266C582.027 647.546 547.711 652.932 505.366 652.932C463.02 652.932 428.696 647.546 428.711 605.266C428.696 562.985 464.465 539.653 505.366 528.705C568.996 511.681 582.027 562.993 582.02 605.266Z" fill="#939DAC"/>
<path d="M566.913 629.113C569.984 640.533 560.844 644.533 549.091 647.684C537.337 650.827 527.421 651.923 524.357 640.497C521.293 629.077 528.328 617.266 540.081 614.122C551.835 610.979 563.85 617.687 566.913 629.113Z" fill="white"/>
<path d="M489.525 641.491C486.462 652.918 476.545 651.822 464.792 648.678C453.038 645.535 443.906 641.528 446.969 630.101C450.04 618.681 462.047 611.966 473.801 615.117C485.554 618.26 492.596 630.072 489.525 641.491Z" fill="white"/>
<path d="M527.406 639.604C527.413 651.437 517.547 652.94 505.38 652.94C493.206 652.94 483.347 651.43 483.347 639.604C483.354 627.785 493.213 618.195 505.38 618.195C517.547 618.195 527.413 627.785 527.406 639.604Z" fill="white"/>
<path d="M539.95 526.498C559.668 541.693 564.873 572.488 564.866 599.668C564.88 643.415 529.38 649.012 485.576 649.012C476.073 649.012 467.006 648.7 458.563 647.843C471.507 651.981 487.725 652.91 505.351 652.91C547.697 652.91 582.027 647.538 582.02 605.258C582.027 572.132 574.013 533.504 539.95 526.498Z" fill="#010101" fill-opacity="0.3137"/>
<path d="M591.726 372.246C604.794 450.541 545.54 513.359 420.108 527.442C314.938 539.246 212.221 469.292 212.257 380.166C272.004 289.442 439.956 186.834 440.893 275.954C441.285 314.299 546.934 220.78 591.741 372.246H591.726Z" fill="#010101" fill-opacity="0.3137"/>
<path d="M552.728 314.858C550.789 287.997 543.958 262.792 533.33 240.483C545.301 231.532 553.316 215.684 553.316 197.658C553.316 169.752 534.244 147.102 510.767 147.102C495.587 147.102 482.323 156.62 474.788 170.841C452.363 155.756 426.461 147.102 398.859 147.102C371.265 147.102 345.421 155.763 322.996 170.841C315.468 156.62 302.197 147.102 287.017 147.102C263.54 147.102 244.476 169.752 244.476 197.658C244.476 215.713 252.461 231.539 264.454 240.483C253.826 262.792 247.002 287.997 245.064 314.858C225.485 335.417 214.058 360.122 214.058 386.692C214.058 458.25 296.811 516.255 398.896 516.255C500.974 516.255 583.726 458.25 583.726 386.692C583.726 360.122 572.307 335.417 552.728 314.858Z" fill="#939DAC"/>
<path d="M497.031 402.293C489.83 417.139 476.595 424.108 467.485 417.858C458.381 411.615 456.849 394.518 464.058 379.679C471.267 364.841 484.501 357.871 493.605 364.115C502.708 370.365 504.247 387.462 497.031 402.293Z" fill="#010101"/>
<path d="M300.76 402.293C307.961 417.139 321.196 424.108 330.299 417.858C339.41 411.615 340.942 394.518 333.726 379.679C326.524 364.841 313.29 357.871 304.186 364.115C295.083 370.365 293.544 387.462 300.76 402.293Z" fill="#010101"/>
<path d="M509.358 170.965C500.821 170.965 493.373 176.308 489.119 184.286C502.171 194.733 513.402 208.069 522.186 223.575C528.88 218.523 533.344 209.593 533.344 199.473C533.344 183.742 522.593 170.965 509.358 170.965Z" fill="#E6E6E6"/>
<path d="M284.985 170.965C293.515 170.965 300.97 176.308 305.224 184.286C292.172 194.733 280.934 208.069 272.157 223.575C265.456 218.523 260.991 209.593 260.991 199.473C260.991 183.742 271.743 170.965 284.985 170.965Z" fill="#E6E6E6"/>
<path d="M580.06 361.523C570.855 450.221 527.166 483.383 426.961 494.505C382.155 499.478 353.53 504.451 270.756 481.452C346.684 521.228 358.51 512.524 418.25 514.389C463.993 515.819 537.736 495.122 574.456 429.255C594.993 378.924 581.889 371.258 580.06 361.523Z" fill="#010101" fill-opacity="0.3137"/>
<path d="M474.067 315.538C454.869 315.538 441.378 302.462 427.003 291.496C409.449 278.2 389.047 278.2 371.498 291.496C357.126 302.462 343.631 315.538 324.433 315.538C294.266 315.538 272.654 288.612 272.654 259.256C272.654 229.9 294.266 202.975 324.433 202.975C374.239 202.975 424.153 202.975 474.067 202.975C504.127 202.975 525.846 229.9 525.846 259.256C525.846 288.612 504.127 315.538 474.067 315.538ZM474.067 194.997C424.153 194.997 374.239 194.997 324.433 194.997C291.412 194.997 264.754 223.805 264.754 259.256C264.754 294.708 291.412 323.512 324.433 323.512C346.593 323.512 361.513 309.11 376.212 297.92C391.024 286.73 407.481 286.73 422.18 297.92C436.988 309.11 451.908 323.512 474.067 323.512C507.088 323.512 533.746 294.708 533.746 259.256C533.746 223.805 507.088 194.997 474.067 194.997Z" fill="black"/>
<path d="M243.035 242.083C240.294 242.083 238.101 244.298 238.101 247.069V258.924C238.101 261.695 240.294 263.91 243.035 263.91H261.577C261.465 262.356 261.465 260.806 261.465 259.256C261.465 253.273 262.233 247.51 263.55 242.083H243.035Z" fill="black"/>
<path d="M474.067 206.299C424.153 206.299 374.239 206.299 324.433 206.299C296.023 206.299 275.948 231.783 275.948 259.257C275.948 286.73 296.023 312.21 324.433 312.21C342.643 312.21 355.918 299.25 369.521 288.833C388.278 274.656 410.222 274.656 428.98 288.833C442.583 299.25 455.854 312.21 474.067 312.21C502.37 312.21 522.552 286.73 522.552 259.257C522.552 231.783 502.37 206.299 474.067 206.299Z" fill="black"/>
<path d="M555.466 242.083H534.843C536.268 247.51 537.036 253.273 537.036 259.256C537.036 260.806 537.036 262.356 536.928 263.91H555.466C558.207 263.91 560.404 261.695 560.404 258.924V247.069C560.404 244.298 558.207 242.083 555.466 242.083Z" fill="black"/>
<path d="M338.694 259.441L339.605 259.622L339.786 258.711L340.763 253.803L340.944 252.891L340.032 252.71L322.739 249.274L347.536 228.705C347.536 228.705 347.536 228.704 347.537 228.704C348.559 227.858 348.999 226.501 348.673 225.217L348.673 225.215C348.347 223.937 347.309 222.952 346.012 222.696C346.012 222.696 346.012 222.696 346.012 222.696L321.653 217.859L320.743 217.678L320.56 218.588L319.578 223.496L319.395 224.408L320.308 224.59L337.601 228.025L312.803 248.596L312.8 248.598C311.783 249.448 311.341 250.796 311.667 252.083C311.993 253.368 313.025 254.348 314.328 254.604C314.328 254.604 314.329 254.604 314.329 254.604L338.694 259.441Z" fill="white" stroke="white" stroke-width="1.85847"/>
<path d="M386.424 222.512L385.513 222.331L367.243 218.702C367.243 218.702 367.243 218.702 367.242 218.702C366.181 218.491 365.335 217.695 365.065 216.647C364.795 215.595 365.162 214.482 365.995 213.792L386.424 222.512ZM386.424 222.512L386.605 221.601L387.338 217.92L387.519 217.008L386.607 216.827L374.119 214.349L392.345 199.226L392.348 199.224C393.171 198.535 393.539 197.431 393.269 196.378C393.001 195.335 392.158 194.528 391.091 194.317C391.091 194.317 391.091 194.317 391.091 194.317L372.821 190.687L371.91 190.506L371.729 191.417L370.996 195.098L370.815 196.01L371.726 196.191L384.216 198.676L365.996 213.791L386.424 222.512Z" fill="white" stroke="white" stroke-width="1.85847"/>
<path d="M422.996 190.671L422.085 190.49L409.905 188.074L409.901 188.074C409.07 187.905 408.426 187.278 408.216 186.473C407.999 185.649 408.3 184.791 408.928 184.261L408.933 184.257L408.933 184.257L420.582 174.589L412.898 173.061L411.986 172.88L412.168 171.968L412.656 169.514L412.837 168.603L413.748 168.784L425.929 171.206L425.932 171.207C426.745 171.372 427.412 171.981 427.618 172.808C427.829 173.625 427.548 174.487 426.9 175.023L422.996 190.671ZM422.996 190.671L423.177 189.76L423.665 187.306L423.847 186.394L422.935 186.213L415.251 184.686L426.899 175.024L422.996 190.671Z" fill="white" stroke="white" stroke-width="1.85847"/>
</g>
<defs>
<clipPath id="clip0_17:12791">
<rect width="696.926" height="696.926" fill="white" transform="translate(52.0371 52.0371)"/>
</clipPath>
</defs>
</svg>
