<svg width="22" height="23" viewBox="0 0 22 23" fill="none" xmlns="http://www.w3.org/2000/svg">
<path fill-rule="evenodd" clip-rule="evenodd" d="M21.168 11.4955C21.168 10.7297 21.0993 9.99332 20.9717 9.28641H10.8V13.464H16.6124C16.362 14.814 15.6011 15.9579 14.4573 16.7237V19.4335H17.9477C19.9899 17.5533 21.168 14.7846 21.168 11.4955Z" fill="#4285F4"/>
<path fill-rule="evenodd" clip-rule="evenodd" d="M10.8 22.05C13.716 22.05 16.1607 21.0829 17.9476 19.4335L14.4572 16.7237C13.4901 17.3717 12.253 17.7546 10.8 17.7546C7.98705 17.7546 5.60614 15.8548 4.75686 13.302H1.14868V16.1002C2.92577 19.6298 6.57814 22.05 10.8 22.05Z" fill="#34A853"/>
<path fill-rule="evenodd" clip-rule="evenodd" d="M4.75691 13.3021C4.54091 12.6541 4.41818 11.9619 4.41818 11.2501C4.41818 10.5382 4.54091 9.84607 4.75691 9.19807V6.39988H1.14873C0.417273 7.85788 0 9.50734 0 11.2501C0 12.9928 0.417273 14.6422 1.14873 16.1002L4.75691 13.3021Z" fill="#FBBC05"/>
<path fill-rule="evenodd" clip-rule="evenodd" d="M10.8 4.74548C12.3856 4.74548 13.8092 5.29039 14.9285 6.36057L18.0261 3.26293C16.1558 1.52021 13.711 0.450024 10.8 0.450024C6.57814 0.450024 2.92577 2.87021 1.14868 6.39984L4.75686 9.19802C5.60614 6.6453 7.98705 4.74548 10.8 4.74548Z" fill="#EA4335"/>
</svg>
