<svg width="18" height="21" viewBox="0 0 18 21" fill="none" xmlns="http://www.w3.org/2000/svg">
<path d="M17.6216 14.4867C17.5438 14.393 17.4675 14.2993 17.3926 14.209C16.3622 12.9627 15.7388 12.2105 15.7388 8.68236C15.7388 6.85578 15.3018 5.35704 14.4405 4.23299C13.8054 3.4026 12.9469 2.77266 11.8154 2.30712C11.8008 2.29902 11.7878 2.28839 11.777 2.27574C11.37 0.912824 10.2562 0 9.00012 0C7.74399 0 6.63071 0.912824 6.22371 2.27433C6.21285 2.28652 6.20002 2.29681 6.18577 2.30477C3.54519 3.39183 2.26189 5.47741 2.26189 8.68096C2.26189 12.2105 1.63945 12.9627 0.608132 14.2075C0.533196 14.2979 0.456854 14.3897 0.379107 14.4853C0.178277 14.7275 0.0510342 15.0221 0.0124382 15.3344C-0.0261579 15.6466 0.0255081 15.9634 0.161322 16.2472C0.450297 16.8561 1.06618 17.2341 1.76918 17.2341H16.2362C16.9359 17.2341 17.5476 16.8566 17.8375 16.2505C17.9739 15.9666 18.0261 15.6496 17.9878 15.337C17.9495 15.0244 17.8224 14.7293 17.6216 14.4867V14.4867Z" fill="white"/>
<path d="M9.00004 20.9823C9.67683 20.9817 10.3409 20.798 10.9217 20.4506C11.5025 20.1033 11.9785 19.6051 12.2991 19.0091C12.3142 18.9806 12.3217 18.9486 12.3208 18.9163C12.3199 18.884 12.3106 18.8525 12.294 18.8248C12.2773 18.7971 12.2537 18.7742 12.2256 18.7584C12.1974 18.7425 12.1657 18.7342 12.1333 18.7342H5.86769C5.83534 18.7341 5.80351 18.7423 5.7753 18.7582C5.74709 18.774 5.72347 18.7969 5.70672 18.8246C5.68998 18.8523 5.68069 18.8838 5.67976 18.9162C5.67884 18.9485 5.6863 18.9805 5.70142 19.0091C6.02203 19.6051 6.49793 20.1031 7.07867 20.4505C7.65941 20.7979 8.32333 20.9817 9.00004 20.9823Z" fill="white"/>
</svg>
