<svg width="36" height="36" viewBox="0 0 36 36" fill="none" xmlns="http://www.w3.org/2000/svg">
<path d="M29.875 24.25H24.875C24.5298 24.25 24.25 24.5298 24.25 24.875V29.875C24.25 30.2202 24.5298 30.5 24.875 30.5H29.875C30.2202 30.5 30.5 30.2202 30.5 29.875V24.875C30.5 24.5298 30.2202 24.25 29.875 24.25Z" fill="#7986CB"/>
<path d="M23.625 19.25H19.875C19.5298 19.25 19.25 19.5298 19.25 19.875V23.625C19.25 23.9702 19.5298 24.25 19.875 24.25H23.625C23.9702 24.25 24.25 23.9702 24.25 23.625V19.875C24.25 19.5298 23.9702 19.25 23.625 19.25Z" fill="#7986CB"/>
<path d="M34.875 30.5H31.125C30.7798 30.5 30.5 30.7798 30.5 31.125V34.875C30.5 35.2202 30.7798 35.5 31.125 35.5H34.875C35.2202 35.5 35.5 35.2202 35.5 34.875V31.125C35.5 30.7798 35.2202 30.5 34.875 30.5Z" fill="#7986CB"/>
<path d="M34.875 19.25H32.375C32.0298 19.25 31.75 19.5298 31.75 19.875V22.375C31.75 22.7202 32.0298 23 32.375 23H34.875C35.2202 23 35.5 22.7202 35.5 22.375V19.875C35.5 19.5298 35.2202 19.25 34.875 19.25Z" fill="#7986CB"/>
<path d="M22.375 31.75H19.875C19.5298 31.75 19.25 32.0298 19.25 32.375V34.875C19.25 35.2202 19.5298 35.5 19.875 35.5H22.375C22.7202 35.5 23 35.2202 23 34.875V32.375C23 32.0298 22.7202 31.75 22.375 31.75Z" fill="#7986CB"/>
<path d="M33 0.5H21.75C21.087 0.5 20.4511 0.763392 19.9822 1.23223C19.5134 1.70107 19.25 2.33696 19.25 3V14.25C19.25 14.913 19.5134 15.5489 19.9822 16.0178C20.4511 16.4866 21.087 16.75 21.75 16.75H33C33.663 16.75 34.2989 16.4866 34.7678 16.0178C35.2366 15.5489 35.5 14.913 35.5 14.25V3C35.5 2.33696 35.2366 1.70107 34.7678 1.23223C34.2989 0.763392 33.663 0.5 33 0.5ZM30.5 11.125C30.5 11.2908 30.4342 11.4497 30.3169 11.5669C30.1997 11.6842 30.0408 11.75 29.875 11.75H24.875C24.7092 11.75 24.5503 11.6842 24.4331 11.5669C24.3158 11.4497 24.25 11.2908 24.25 11.125V6.125C24.25 5.95924 24.3158 5.80027 24.4331 5.68306C24.5503 5.56585 24.7092 5.5 24.875 5.5H29.875C30.0408 5.5 30.1997 5.56585 30.3169 5.68306C30.4342 5.80027 30.5 5.95924 30.5 6.125V11.125Z" fill="#7986CB"/>
<path d="M14.25 0.5H3C2.33696 0.5 1.70107 0.763392 1.23223 1.23223C0.763392 1.70107 0.5 2.33696 0.5 3V14.25C0.5 14.913 0.763392 15.5489 1.23223 16.0178C1.70107 16.4866 2.33696 16.75 3 16.75H14.25C14.913 16.75 15.5489 16.4866 16.0178 16.0178C16.4866 15.5489 16.75 14.913 16.75 14.25V3C16.75 2.33696 16.4866 1.70107 16.0178 1.23223C15.5489 0.763392 14.913 0.5 14.25 0.5ZM11.75 11.125C11.75 11.2908 11.6842 11.4497 11.5669 11.5669C11.4497 11.6842 11.2908 11.75 11.125 11.75H6.125C5.95924 11.75 5.80027 11.6842 5.68306 11.5669C5.56585 11.4497 5.5 11.2908 5.5 11.125V6.125C5.5 5.95924 5.56585 5.80027 5.68306 5.68306C5.80027 5.56585 5.95924 5.5 6.125 5.5H11.125C11.2908 5.5 11.4497 5.56585 11.5669 5.68306C11.6842 5.80027 11.75 5.95924 11.75 6.125V11.125Z" fill="#7986CB"/>
<path d="M14.25 19.25H3C2.33696 19.25 1.70107 19.5134 1.23223 19.9822C0.763392 20.4511 0.5 21.087 0.5 21.75V33C0.5 33.663 0.763392 34.2989 1.23223 34.7678C1.70107 35.2366 2.33696 35.5 3 35.5H14.25C14.913 35.5 15.5489 35.2366 16.0178 34.7678C16.4866 34.2989 16.75 33.663 16.75 33V21.75C16.75 21.087 16.4866 20.4511 16.0178 19.9822C15.5489 19.5134 14.913 19.25 14.25 19.25ZM11.75 29.875C11.75 30.0408 11.6842 30.1997 11.5669 30.3169C11.4497 30.4342 11.2908 30.5 11.125 30.5H6.125C5.95924 30.5 5.80027 30.4342 5.68306 30.3169C5.56585 30.1997 5.5 30.0408 5.5 29.875V24.875C5.5 24.7092 5.56585 24.5503 5.68306 24.4331C5.80027 24.3158 5.95924 24.25 6.125 24.25H11.125C11.2908 24.25 11.4497 24.3158 11.5669 24.4331C11.6842 24.5503 11.75 24.7092 11.75 24.875V29.875Z" fill="#7986CB"/>
</svg>
