<svg width="74" height="98" viewBox="0 0 74 98" fill="none" xmlns="http://www.w3.org/2000/svg">
<path d="M48.9999 0.666656C39.4404 0.666656 30.0957 3.50136 22.1473 8.81229C14.1989 14.1232 8.00392 21.6719 4.34568 30.5036C0.687446 39.3354 -0.269715 49.0536 1.59524 58.4294C3.46019 67.8051 8.06349 76.4173 14.823 83.1768C21.5826 89.9364 30.1947 94.5397 39.5705 96.4046C48.9462 98.2696 58.6645 97.3124 67.4962 93.6542C76.328 89.9959 83.8766 83.8009 89.1876 75.8526C94.4985 67.9042 97.3332 58.5594 97.3332 49C97.3332 42.6528 96.083 36.3677 93.654 30.5036C91.2251 24.6396 87.6649 19.3113 83.1767 14.8232C78.6885 10.335 73.3603 6.77479 67.4962 4.34581C61.6322 1.91684 55.3471 0.666656 48.9999 0.666656V0.666656ZM48.9999 87.6667C41.3523 87.6667 33.8765 85.3989 27.5178 81.1501C21.1591 76.9014 16.2031 70.8625 13.2765 63.7971C10.3499 56.7317 9.5842 48.9571 11.0762 41.4565C12.5681 33.9559 16.2508 27.0662 21.6584 21.6585C27.066 16.2509 33.9558 12.5683 41.4564 11.0763C48.957 9.58433 56.7315 10.3501 63.797 13.2766C70.8624 16.2032 76.9013 21.1592 81.15 27.5179C85.3988 33.8766 87.6665 41.3524 87.6665 49C87.6665 59.255 83.5927 69.09 76.3413 76.3415C69.0899 83.5929 59.2549 87.6667 48.9999 87.6667V87.6667Z" fill="#949DCD" fill-opacity="0.15"/>
<path d="M48.9997 20C44.5131 20 40.2103 21.7823 37.0378 24.9548C33.8653 28.1273 32.083 32.4301 32.083 36.9167C32.083 38.1985 32.5922 39.4279 33.4987 40.3343C34.4051 41.2408 35.6345 41.75 36.9163 41.75C38.1982 41.75 39.4276 41.2408 40.334 40.3343C41.2404 39.4279 41.7497 38.1985 41.7497 36.9167C41.7497 35.4827 42.1749 34.081 42.9715 32.8888C43.7682 31.6965 44.9005 30.7673 46.2252 30.2185C47.55 29.6698 49.0077 29.5262 50.4141 29.806C51.8204 30.0857 53.1123 30.7762 54.1262 31.7901C55.1401 32.8041 55.8306 34.0959 56.1104 35.5022C56.3901 36.9086 56.2465 38.3663 55.6978 39.6911C55.1491 41.0159 54.2198 42.1482 53.0276 42.9448C51.8353 43.7415 50.4336 44.1667 48.9997 44.1667C47.7178 44.1667 46.4884 44.6759 45.582 45.5823C44.6756 46.4887 44.1663 47.7181 44.1663 49V58.6667C44.1663 59.9485 44.6756 61.1779 45.582 62.0843C46.4884 62.9908 47.7178 63.5 48.9997 63.5C50.2816 63.5 51.5109 62.9908 52.4174 62.0843C53.3238 61.1779 53.833 59.9485 53.833 58.6667V53.06C57.7388 51.9193 61.1007 49.4053 63.299 45.9813C65.4973 42.5572 66.3839 38.454 65.7953 34.4278C65.2066 30.4016 63.1825 26.7239 60.096 24.0725C57.0095 21.4211 53.0686 19.9747 48.9997 20V20Z" fill="#949DCD" fill-opacity="0.15"/>
<path d="M48.9998 78C51.6692 78 53.8332 75.836 53.8332 73.1666C53.8332 70.4973 51.6692 68.3333 48.9998 68.3333C46.3305 68.3333 44.1665 70.4973 44.1665 73.1666C44.1665 75.836 46.3305 78 48.9998 78Z" fill="#949DCD" fill-opacity="0.15"/>
</svg>
