<svg width="85" height="102" viewBox="0 0 85 102" fill="none" xmlns="http://www.w3.org/2000/svg">
<path fill-rule="evenodd" clip-rule="evenodd" d="M72.9856 65.7365L100.334 93.0849C101.295 94.0468 101.835 95.3512 101.834 96.7111C101.834 98.071 101.293 99.375 100.331 100.336C99.3695 101.297 98.0651 101.837 96.7052 101.837C95.3453 101.836 94.0413 101.296 93.08 100.334L65.7317 72.9854C57.5562 79.3176 47.2755 82.2974 36.981 81.3187C26.6865 80.3401 17.1515 75.4763 10.3157 67.717C3.47984 59.9578 -0.143261 49.8857 0.183401 39.55C0.510063 29.2142 4.76195 19.3911 12.0741 12.0789C19.3862 4.76677 29.2094 0.514884 39.5451 0.188222C49.8809 -0.13844 59.9529 3.48466 67.7122 10.3205C75.4715 17.1563 80.3352 26.6913 81.3139 36.9858C82.2926 47.2804 79.3127 57.5611 72.9805 65.7365H72.9856ZM40.8335 71.3333C48.9226 71.3333 56.6804 68.1199 62.4003 62.4C68.1201 56.6802 71.3335 48.9224 71.3335 40.8333C71.3335 32.7442 68.1201 24.9864 62.4003 19.2665C56.6804 13.5467 48.9226 10.3333 40.8335 10.3333C32.7444 10.3333 24.9866 13.5467 19.2668 19.2665C13.5469 24.9864 10.3335 32.7442 10.3335 40.8333C10.3335 48.9224 13.5469 56.6802 19.2668 62.4C24.9866 68.1199 32.7444 71.3333 40.8335 71.3333Z" fill="#949DCD" fill-opacity="0.15"/>
</svg>
