<svg width="25" height="25" viewBox="0 0 25 25" fill="none" xmlns="http://www.w3.org/2000/svg">
<path d="M21.6506 11.3569C22.1246 11.9769 22.1246 12.8139 21.6506 13.4329C20.1576 15.3819 16.5756 19.3949 12.3936 19.3949C8.21157 19.3949 4.62957 15.3819 3.13657 13.4329C2.90595 13.136 2.78076 12.7708 2.78076 12.3949C2.78076 12.019 2.90595 11.6538 3.13657 11.3569C4.62957 9.40791 8.21157 5.39491 12.3936 5.39491C16.5756 5.39491 20.1576 9.40791 21.6506 11.3569V11.3569Z" stroke="#A3A3A3" stroke-width="2" stroke-linecap="round" stroke-linejoin="round"/>
<path d="M12.3936 15.3949C14.0504 15.3949 15.3936 14.0518 15.3936 12.3949C15.3936 10.7381 14.0504 9.39491 12.3936 9.39491C10.7367 9.39491 9.39355 10.7381 9.39355 12.3949C9.39355 14.0518 10.7367 15.3949 12.3936 15.3949Z" stroke="#A3A3A3" stroke-width="2" stroke-linecap="round" stroke-linejoin="round"/>
<path d="M21.6506 11.3569C22.1246 11.9769 22.1246 12.8139 21.6506 13.4329C20.1576 15.3819 16.5756 19.3949 12.3936 19.3949C8.21157 19.3949 4.62957 15.3819 3.13657 13.4329C2.90595 13.136 2.78076 12.7708 2.78076 12.3949C2.78076 12.019 2.90595 11.6538 3.13657 11.3569C4.62957 9.40791 8.21157 5.39491 12.3936 5.39491C16.5756 5.39491 20.1576 9.40791 21.6506 11.3569V11.3569Z" stroke="#A3A3A3" stroke-width="2" stroke-linecap="round" stroke-linejoin="round"/>
<path d="M12.3936 15.3949C14.0504 15.3949 15.3936 14.0518 15.3936 12.3949C15.3936 10.7381 14.0504 9.39491 12.3936 9.39491C10.7367 9.39491 9.39355 10.7381 9.39355 12.3949C9.39355 14.0518 10.7367 15.3949 12.3936 15.3949Z" stroke="#A3A3A3" stroke-width="2" stroke-linecap="round" stroke-linejoin="round"/>
</svg>
