<svg width="10" height="10" viewBox="0 0 10 10" fill="none" xmlns="http://www.w3.org/2000/svg">
<path d="M9.97357 3.59001C9.94214 3.49745 9.8843 3.41613 9.80717 3.35607C9.73004 3.29601 9.63701 3.25985 9.53957 3.25205L6.68905 3.02558L5.45555 0.295445C5.41626 0.207512 5.35237 0.132827 5.27157 0.0804019C5.19077 0.0279769 5.09652 5.29325e-05 5.0002 7.51793e-08C4.90389 -5.27821e-05 4.80961 0.0277677 4.72875 0.0801041C4.6479 0.13244 4.58392 0.207056 4.54454 0.294945L3.31103 3.02558L0.460516 3.25205C0.364743 3.25964 0.273184 3.29465 0.196792 3.3529C0.1204 3.41116 0.06241 3.49018 0.0297599 3.58052C-0.00289021 3.67087 -0.00881802 3.7687 0.0126857 3.86232C0.0341894 3.95595 0.082214 4.04139 0.151014 4.10844L2.25753 6.16167L1.51252 9.38724C1.4899 9.48488 1.49715 9.58706 1.53333 9.68052C1.56951 9.77399 1.63295 9.85442 1.71542 9.91139C1.79789 9.96835 1.89558 9.99922 1.99582 9.99999C2.09605 10.0007 2.1942 9.97137 2.27753 9.91567L5.00004 8.10091L7.72256 9.91567C7.80773 9.97221 7.90817 10.0013 8.01038 9.99907C8.11258 9.99683 8.21165 9.96335 8.29426 9.90313C8.37687 9.84292 8.43905 9.75885 8.47245 9.66224C8.50584 9.56563 8.50885 9.46111 8.48106 9.36274L7.56656 6.16317L9.83457 4.12244C9.98307 3.98846 10.0376 3.77948 9.97357 3.59001Z" fill="#FFB800"/>
</svg>
